<?xml version="1.0" encoding="utf-8"?>
<!-- Generator: Adobe Illustrator 22.1.0, SVG Export Plug-In . SVG Version: 6.00 Build 0)  -->
<svg version="1.1" xmlns="http://www.w3.org/2000/svg" xmlns:xlink="http://www.w3.org/1999/xlink" x="0px" y="0px"
	 viewBox="0 0 106.9 15.3" style="enable-background:new 0 0 106.9 15.3;" xml:space="preserve">
<style type="text/css">
	.st0{fill:none;stroke:#1D1D1B;stroke-width:0.459;stroke-miterlimit:10;}
	.st1{fill:#E6007E;}
	.st2{fill:#1D1D1B;}
	.st3{fill:#260000;}
	.st4{clip-path:url(#SVGID_2_);}
	.st5{clip-path:url(#SVGID_6_);}
	.st6{clip-path:url(#SVGID_10_);}
	.st7{clip-path:url(#SVGID_14_);}
	.st8{fill:#009FE3;}
	.st9{fill:#DADADA;}
	.st10{fill:#FFFFFF;}
	.st11{fill:none;stroke:#1D1D1B;stroke-width:0.5;stroke-miterlimit:10;}
	.st12{fill:none;stroke:#1D1D1B;stroke-width:0.25;stroke-miterlimit:10;}
</style>
<g id="Calque_1">
	<g>
		<g>
			<path class="st2" d="M32.7,10.1c0.1,0.1,0.2,0.3,0.2,0.5c0,0.4-0.3,0.7-0.7,0.7c-0.4,0-0.7-0.3-0.7-0.7c0-0.2,0.1-0.4,0.2-0.5
				c-0.1-0.1-0.2-0.3-0.2-0.5c0-0.4,0.3-0.7,0.7-0.7c0.4,0,0.7,0.3,0.7,0.7C32.9,9.8,32.9,10,32.7,10.1z M35.3,9.3
				c-0.2,0-0.4-0.1-0.5-0.2c-0.1,0.1-0.3,0.2-0.5,0.2s-0.4-0.1-0.5-0.2c-0.1,0.1-0.3,0.2-0.5,0.2c-0.4,0-0.7-0.3-0.7-0.7
				c0-0.2,0.1-0.4,0.2-0.5c-0.1-0.1-0.2-0.3-0.2-0.5s0.1-0.4,0.2-0.5c-0.1-0.1-0.2-0.3-0.2-0.5c0-0.4,0.3-0.7,0.7-0.7
				s0.7,0.3,0.7,0.7c0,0.2-0.1,0.4-0.2,0.5c0.1,0.1,0.2,0.3,0.2,0.5S33.9,8,33.7,8.1c0,0,0,0,0,0c0.1-0.1,0.3-0.2,0.5-0.2
				s0.4,0.1,0.5,0.2c0,0,0,0,0,0c-0.1-0.1-0.2-0.3-0.2-0.5s0.1-0.4,0.2-0.5c-0.1-0.1-0.2-0.3-0.2-0.5c0-0.4,0.3-0.7,0.7-0.7
				s0.7,0.3,0.7,0.7c0,0.2-0.1,0.4-0.2,0.5c0.1,0.1,0.2,0.3,0.2,0.5S35.9,8,35.7,8.1c0.1,0.1,0.2,0.3,0.2,0.5
				C35.9,9,35.6,9.3,35.3,9.3z M33.8,5.1c-0.1-0.1-0.2-0.3-0.2-0.5c0-0.4,0.3-0.7,0.7-0.7s0.7,0.3,0.7,0.7c0,0.2-0.1,0.4-0.2,0.5
				c0.1,0.1,0.2,0.3,0.2,0.5c0,0.4-0.3,0.7-0.7,0.7S33.6,6,33.6,5.6C33.6,5.4,33.7,5.2,33.8,5.1z M36.9,10.6c0,0.4-0.3,0.7-0.7,0.7
				s-0.7-0.3-0.7-0.7c0-0.2,0.1-0.4,0.2-0.5c-0.1-0.1-0.2-0.3-0.2-0.5c0-0.4,0.3-0.7,0.7-0.7s0.7,0.3,0.7,0.7c0,0.2-0.1,0.4-0.2,0.5
				C36.9,10.2,36.9,10.4,36.9,10.6z"/>
			<path class="st2" d="M41.8,9.3c-0.4,0-0.7-0.3-0.7-0.7c0-0.2,0.1-0.4,0.2-0.5c0,0,0,0,0,0c-0.1,0.1-0.3,0.2-0.5,0.2
				c-0.2,0-0.4-0.1-0.5-0.2c0,0,0,0,0,0c0.1,0.1,0.2,0.3,0.2,0.5c0,0.2-0.1,0.4-0.2,0.5c0.1,0.1,0.2,0.3,0.2,0.5s-0.1,0.4-0.2,0.5
				c0.1,0.1,0.2,0.3,0.2,0.5c0,0.4-0.3,0.7-0.7,0.7c-0.4,0-0.7-0.3-0.7-0.7c0-0.2,0.1-0.4,0.2-0.5c-0.1-0.1-0.2-0.3-0.2-0.5
				s0.1-0.4,0.2-0.5c-0.1-0.1-0.2-0.3-0.2-0.5c0-0.2,0.1-0.4,0.2-0.5c-0.1-0.1-0.2-0.3-0.2-0.5s0.1-0.4,0.2-0.5
				c-0.1-0.1-0.2-0.3-0.2-0.5c0-0.2,0.1-0.4,0.2-0.5c-0.1-0.1-0.2-0.3-0.2-0.5s0.1-0.4,0.2-0.5c-0.1-0.1-0.2-0.3-0.2-0.5
				c0-0.4,0.3-0.7,0.7-0.7c0.2,0,0.4,0.1,0.5,0.2c0.1-0.1,0.3-0.2,0.5-0.2c0.2,0,0.4,0.1,0.5,0.2c0.1-0.1,0.3-0.2,0.5-0.2
				s0.4,0.1,0.5,0.2c0.1-0.1,0.3-0.2,0.5-0.2c0.4,0,0.7,0.3,0.7,0.7s-0.3,0.7-0.7,0.7c-0.2,0-0.4-0.1-0.5-0.2
				c-0.1,0.1-0.3,0.2-0.5,0.2s-0.4-0.1-0.5-0.2c-0.1,0.1-0.3,0.2-0.5,0.2c-0.2,0-0.4-0.1-0.5-0.2c0,0,0,0,0,0
				c0.1,0.1,0.2,0.3,0.2,0.5S40.4,6,40.2,6.1c0.1,0.1,0.2,0.3,0.2,0.5c0,0.2-0.1,0.4-0.2,0.5c0,0,0,0,0,0c0.1-0.1,0.3-0.2,0.5-0.2
				c0.2,0,0.4,0.1,0.5,0.2c0.1-0.1,0.3-0.2,0.5-0.2s0.4,0.1,0.5,0.2c0.1-0.1,0.3-0.2,0.5-0.2c0.4,0,0.7,0.3,0.7,0.7
				s-0.3,0.7-0.7,0.7c-0.2,0-0.4-0.1-0.5-0.2c0,0,0,0,0,0c0.1,0.1,0.2,0.3,0.2,0.5C42.4,9,42.1,9.3,41.8,9.3z M42.8,10.3
				c-0.4,0-0.7-0.3-0.7-0.7s0.3-0.7,0.7-0.7s0.7,0.3,0.7,0.7S43.1,10.3,42.8,10.3z M44.4,6.6c0,0.4-0.3,0.7-0.7,0.7S43.1,7,43.1,6.6
				c0-0.2,0.1-0.4,0.2-0.5c-0.1-0.1-0.2-0.3-0.2-0.5c0-0.4,0.3-0.7,0.7-0.7s0.7,0.3,0.7,0.7c0,0.2-0.1,0.4-0.2,0.5
				C44.4,6.2,44.4,6.4,44.4,6.6z M44.4,10.6c0,0.4-0.3,0.7-0.7,0.7s-0.7-0.3-0.7-0.7s0.3-0.7,0.7-0.7S44.4,10.2,44.4,10.6z"/>
			<path class="st2" d="M47.3,10.3c-0.4,0-0.7-0.3-0.7-0.7c0-0.2,0.1-0.4,0.2-0.5c-0.1-0.1-0.2-0.3-0.2-0.5c0-0.2,0.1-0.4,0.2-0.5
				c-0.1-0.1-0.2-0.3-0.2-0.5s0.1-0.4,0.2-0.5c-0.1-0.1-0.2-0.3-0.2-0.5c0-0.2,0.1-0.4,0.2-0.5c-0.1-0.1-0.2-0.3-0.2-0.5
				c0-0.4,0.3-0.7,0.7-0.7s0.7,0.3,0.7,0.7c0,0.2-0.1,0.4-0.2,0.5c0.1,0.1,0.2,0.3,0.2,0.5c0,0.2-0.1,0.4-0.2,0.5
				c0.1,0.1,0.2,0.3,0.2,0.5S47.9,8,47.7,8.1c0.1,0.1,0.2,0.3,0.2,0.5c0,0.2-0.1,0.4-0.2,0.5c0.1,0.1,0.2,0.3,0.2,0.5
				C47.9,10,47.6,10.3,47.3,10.3z M47.6,4.6c0-0.4,0.3-0.7,0.7-0.7c0.2,0,0.4,0.1,0.5,0.2c0.1-0.1,0.3-0.2,0.5-0.2s0.4,0.1,0.5,0.2
				c0.1-0.1,0.3-0.2,0.5-0.2c0.4,0,0.7,0.3,0.7,0.7s-0.3,0.7-0.7,0.7c-0.2,0-0.4-0.1-0.5-0.2c-0.1,0.1-0.3,0.2-0.5,0.2
				s-0.4-0.1-0.5-0.2c-0.1,0.1-0.3,0.2-0.5,0.2C47.9,5.3,47.6,5,47.6,4.6z M50.9,10.6c0,0.4-0.3,0.7-0.7,0.7c-0.2,0-0.4-0.1-0.5-0.2
				c-0.1,0.1-0.3,0.2-0.5,0.2s-0.4-0.1-0.5-0.2c-0.1,0.1-0.3,0.2-0.5,0.2c-0.4,0-0.7-0.3-0.7-0.7s0.3-0.7,0.7-0.7
				c0.2,0,0.4,0.1,0.5,0.2c0.1-0.1,0.3-0.2,0.5-0.2s0.4,0.1,0.5,0.2c0.1-0.1,0.3-0.2,0.5-0.2C50.6,9.9,50.9,10.2,50.9,10.6z
				 M51.3,4.9c0.4,0,0.7,0.3,0.7,0.7s-0.3,0.7-0.7,0.7S50.6,6,50.6,5.6S50.9,4.9,51.3,4.9z M51.9,9.6c0,0.4-0.3,0.7-0.7,0.7
				s-0.7-0.3-0.7-0.7s0.3-0.7,0.7-0.7S51.9,9.2,51.9,9.6z"/>
			<path class="st2" d="M59.2,6.1c0.1,0.1,0.2,0.3,0.2,0.5c0,0.2-0.1,0.4-0.2,0.5c0.1,0.1,0.2,0.3,0.2,0.5S59.4,8,59.2,8.1
				c0.1,0.1,0.2,0.3,0.2,0.5c0,0.2-0.1,0.4-0.2,0.5c0.1,0.1,0.2,0.3,0.2,0.5s-0.1,0.4-0.2,0.5c0.1,0.1,0.2,0.3,0.2,0.5
				c0,0.4-0.3,0.7-0.7,0.7s-0.7-0.3-0.7-0.7c0-0.2,0.1-0.4,0.2-0.5c-0.1-0.1-0.2-0.3-0.2-0.5s0.1-0.4,0.2-0.5
				c-0.1-0.1-0.2-0.3-0.2-0.5c0-0.2,0.1-0.4,0.2-0.5c0,0,0,0,0,0c-0.1,0.1-0.3,0.2-0.5,0.2s-0.4-0.1-0.5-0.2
				c-0.1,0.1-0.3,0.2-0.5,0.2s-0.4-0.1-0.5-0.2c-0.1,0.1-0.3,0.2-0.5,0.2c-0.2,0-0.4-0.1-0.5-0.2c0,0,0,0,0,0
				c0.1,0.1,0.2,0.3,0.2,0.5c0,0.2-0.1,0.4-0.2,0.5c0.1,0.1,0.2,0.3,0.2,0.5s-0.1,0.4-0.2,0.5c0.1,0.1,0.2,0.3,0.2,0.5
				c0,0.4-0.3,0.7-0.7,0.7s-0.7-0.3-0.7-0.7c0-0.2,0.1-0.4,0.2-0.5c-0.1-0.1-0.2-0.3-0.2-0.5s0.1-0.4,0.2-0.5
				c-0.1-0.1-0.2-0.3-0.2-0.5c0-0.2,0.1-0.4,0.2-0.5c-0.1-0.1-0.2-0.3-0.2-0.5s0.1-0.4,0.2-0.5c-0.1-0.1-0.2-0.3-0.2-0.5
				c0-0.2,0.1-0.4,0.2-0.5c-0.1-0.1-0.2-0.3-0.2-0.5s0.1-0.4,0.2-0.5c-0.1-0.1-0.2-0.3-0.2-0.5c0-0.4,0.3-0.7,0.7-0.7
				s0.7,0.3,0.7,0.7c0,0.2-0.1,0.4-0.2,0.5c0.1,0.1,0.2,0.3,0.2,0.5S55.4,6,55.2,6.1c0.1,0.1,0.2,0.3,0.2,0.5c0,0.2-0.1,0.4-0.2,0.5
				c0,0,0,0,0,0c0.1-0.1,0.3-0.2,0.5-0.2c0.2,0,0.4,0.1,0.5,0.2c0.1-0.1,0.3-0.2,0.5-0.2s0.4,0.1,0.5,0.2c0.1-0.1,0.3-0.2,0.5-0.2
				s0.4,0.1,0.5,0.2c0,0,0,0,0,0c-0.1-0.1-0.2-0.3-0.2-0.5c0-0.2,0.1-0.4,0.2-0.5c-0.1-0.1-0.2-0.3-0.2-0.5s0.1-0.4,0.2-0.5
				c-0.1-0.1-0.2-0.3-0.2-0.5c0-0.4,0.3-0.7,0.7-0.7s0.7,0.3,0.7,0.7c0,0.2-0.1,0.4-0.2,0.5c0.1,0.1,0.2,0.3,0.2,0.5
				S59.4,6,59.2,6.1z"/>
			<path class="st2" d="M63.2,6.1c0.1,0.1,0.2,0.3,0.2,0.5c0,0.2-0.1,0.4-0.2,0.5c0.1,0.1,0.2,0.3,0.2,0.5S63.4,8,63.2,8.1
				c0.1,0.1,0.2,0.3,0.2,0.5c0,0.2-0.1,0.4-0.2,0.5c0.1,0.1,0.2,0.3,0.2,0.5s-0.1,0.4-0.2,0.5c0.1,0.1,0.2,0.3,0.2,0.5
				c0,0.4-0.3,0.7-0.7,0.7s-0.7-0.3-0.7-0.7c0-0.2,0.1-0.4,0.2-0.5c-0.1-0.1-0.2-0.3-0.2-0.5s0.1-0.4,0.2-0.5
				c-0.1-0.1-0.2-0.3-0.2-0.5c0-0.2,0.1-0.4,0.2-0.5c-0.1-0.1-0.2-0.3-0.2-0.5s0.1-0.4,0.2-0.5c-0.1-0.1-0.2-0.3-0.2-0.5
				c0-0.2,0.1-0.4,0.2-0.5c-0.1-0.1-0.2-0.3-0.2-0.5s0.1-0.4,0.2-0.5c-0.1-0.1-0.2-0.3-0.2-0.5c0-0.4,0.3-0.7,0.7-0.7
				s0.7,0.3,0.7,0.7c0,0.2-0.1,0.4-0.2,0.5c0.1,0.1,0.2,0.3,0.2,0.5S63.4,6,63.2,6.1z"/>
			<path class="st2" d="M70.9,4.6c0,0.4-0.3,0.7-0.7,0.7c-0.2,0-0.4-0.1-0.5-0.2c-0.1,0.1-0.3,0.2-0.5,0.2s-0.4-0.1-0.5-0.2
				c0,0,0,0,0,0c0.1,0.1,0.2,0.3,0.2,0.5S68.9,6,68.7,6.1c0.1,0.1,0.2,0.3,0.2,0.5c0,0.2-0.1,0.4-0.2,0.5c0.1,0.1,0.2,0.3,0.2,0.5
				S68.9,8,68.7,8.1c0.1,0.1,0.2,0.3,0.2,0.5c0,0.2-0.1,0.4-0.2,0.5c0.1,0.1,0.2,0.3,0.2,0.5s-0.1,0.4-0.2,0.5
				c0.1,0.1,0.2,0.3,0.2,0.5c0,0.4-0.3,0.7-0.7,0.7s-0.7-0.3-0.7-0.7c0-0.2,0.1-0.4,0.2-0.5c-0.1-0.1-0.2-0.3-0.2-0.5
				s0.1-0.4,0.2-0.5c-0.1-0.1-0.2-0.3-0.2-0.5c0-0.2,0.1-0.4,0.2-0.5c-0.1-0.1-0.2-0.3-0.2-0.5s0.1-0.4,0.2-0.5
				c-0.1-0.1-0.2-0.3-0.2-0.5c0-0.2,0.1-0.4,0.2-0.5c-0.1-0.1-0.2-0.3-0.2-0.5s0.1-0.4,0.2-0.5c0,0,0,0,0,0
				c-0.1,0.1-0.3,0.2-0.5,0.2c-0.2,0-0.4-0.1-0.5-0.2c-0.1,0.1-0.3,0.2-0.5,0.2c-0.4,0-0.7-0.3-0.7-0.7s0.3-0.7,0.7-0.7
				c0.2,0,0.4,0.1,0.5,0.2c0.1-0.1,0.3-0.2,0.5-0.2c0.2,0,0.4,0.1,0.5,0.2c0.1-0.1,0.3-0.2,0.5-0.2s0.4,0.1,0.5,0.2
				c0.1-0.1,0.3-0.2,0.5-0.2s0.4,0.1,0.5,0.2c0.1-0.1,0.3-0.2,0.5-0.2C70.6,3.9,70.9,4.2,70.9,4.6z"/>
			<path class="st2" d="M74.2,8.1c0.1,0.1,0.2,0.3,0.2,0.5c0,0.2-0.1,0.4-0.2,0.5c0.1,0.1,0.2,0.3,0.2,0.5s-0.1,0.4-0.2,0.5
				c0,0,0,0,0,0c0.1-0.1,0.3-0.2,0.5-0.2c0.2,0,0.4,0.1,0.5,0.2c0.1-0.1,0.3-0.2,0.5-0.2s0.4,0.1,0.5,0.2c0.1-0.1,0.3-0.2,0.5-0.2
				c0.4,0,0.7,0.3,0.7,0.7s-0.3,0.7-0.7,0.7c-0.2,0-0.4-0.1-0.5-0.2c-0.1,0.1-0.3,0.2-0.5,0.2s-0.4-0.1-0.5-0.2
				c-0.1,0.1-0.3,0.2-0.5,0.2c-0.2,0-0.4-0.1-0.5-0.2c-0.1,0.1-0.3,0.2-0.5,0.2c-0.4,0-0.7-0.3-0.7-0.7c0-0.2,0.1-0.4,0.2-0.5
				c-0.1-0.1-0.2-0.3-0.2-0.5s0.1-0.4,0.2-0.5c-0.1-0.1-0.2-0.3-0.2-0.5c0-0.2,0.1-0.4,0.2-0.5c-0.1-0.1-0.2-0.3-0.2-0.5
				s0.1-0.4,0.2-0.5c-0.1-0.1-0.2-0.3-0.2-0.5c0-0.2,0.1-0.4,0.2-0.5c-0.1-0.1-0.2-0.3-0.2-0.5s0.1-0.4,0.2-0.5
				c-0.1-0.1-0.2-0.3-0.2-0.5c0-0.4,0.3-0.7,0.7-0.7c0.2,0,0.4,0.1,0.5,0.2c0.1-0.1,0.3-0.2,0.5-0.2c0.2,0,0.4,0.1,0.5,0.2
				c0.1-0.1,0.3-0.2,0.5-0.2s0.4,0.1,0.5,0.2c0.1-0.1,0.3-0.2,0.5-0.2c0.4,0,0.7,0.3,0.7,0.7s-0.3,0.7-0.7,0.7
				c-0.2,0-0.4-0.1-0.5-0.2c-0.1,0.1-0.3,0.2-0.5,0.2s-0.4-0.1-0.5-0.2c-0.1,0.1-0.3,0.2-0.5,0.2c-0.2,0-0.4-0.1-0.5-0.2
				c0,0,0,0,0,0c0.1,0.1,0.2,0.3,0.2,0.5S74.4,6,74.2,6.1c0.1,0.1,0.2,0.3,0.2,0.5c0,0.2-0.1,0.4-0.2,0.5c0,0,0,0,0,0
				c0.1-0.1,0.3-0.2,0.5-0.2c0.2,0,0.4,0.1,0.5,0.2c0.1-0.1,0.3-0.2,0.5-0.2s0.4,0.1,0.5,0.2c0.1-0.1,0.3-0.2,0.5-0.2
				c0.4,0,0.7,0.3,0.7,0.7s-0.3,0.7-0.7,0.7c-0.2,0-0.4-0.1-0.5-0.2c-0.1,0.1-0.3,0.2-0.5,0.2s-0.4-0.1-0.5-0.2
				c-0.1,0.1-0.3,0.2-0.5,0.2C74.6,8.3,74.4,8.2,74.2,8.1C74.2,8.1,74.2,8.1,74.2,8.1z"/>
			<path class="st2" d="M80.8,10.3c-0.4,0-0.7-0.3-0.7-0.7c0-0.2,0.1-0.4,0.2-0.5c-0.1-0.1-0.2-0.3-0.2-0.5c0-0.2,0.1-0.4,0.2-0.5
				c-0.1-0.1-0.2-0.3-0.2-0.5s0.1-0.4,0.2-0.5c-0.1-0.1-0.2-0.3-0.2-0.5c0-0.2,0.1-0.4,0.2-0.5c-0.1-0.1-0.2-0.3-0.2-0.5
				c0-0.4,0.3-0.7,0.7-0.7s0.7,0.3,0.7,0.7c0,0.2-0.1,0.4-0.2,0.5c0.1,0.1,0.2,0.3,0.2,0.5c0,0.2-0.1,0.4-0.2,0.5
				c0.1,0.1,0.2,0.3,0.2,0.5S81.4,8,81.2,8.1c0.1,0.1,0.2,0.3,0.2,0.5c0,0.2-0.1,0.4-0.2,0.5c0.1,0.1,0.2,0.3,0.2,0.5
				C81.4,10,81.1,10.3,80.8,10.3z M81.1,4.6c0-0.4,0.3-0.7,0.7-0.7c0.2,0,0.4,0.1,0.5,0.2c0.1-0.1,0.3-0.2,0.5-0.2s0.4,0.1,0.5,0.2
				c0.1-0.1,0.3-0.2,0.5-0.2c0.4,0,0.7,0.3,0.7,0.7s-0.3,0.7-0.7,0.7c-0.2,0-0.4-0.1-0.5-0.2c-0.1,0.1-0.3,0.2-0.5,0.2
				s-0.4-0.1-0.5-0.2c-0.1,0.1-0.3,0.2-0.5,0.2C81.4,5.3,81.1,5,81.1,4.6z M84.4,10.6c0,0.4-0.3,0.7-0.7,0.7c-0.2,0-0.4-0.1-0.5-0.2
				c-0.1,0.1-0.3,0.2-0.5,0.2s-0.4-0.1-0.5-0.2c-0.1,0.1-0.3,0.2-0.5,0.2c-0.4,0-0.7-0.3-0.7-0.7s0.3-0.7,0.7-0.7
				c0.2,0,0.4,0.1,0.5,0.2c0.1-0.1,0.3-0.2,0.5-0.2s0.4,0.1,0.5,0.2c0.1-0.1,0.3-0.2,0.5-0.2C84.1,9.9,84.4,10.2,84.4,10.6z
				 M84.8,4.9c0.4,0,0.7,0.3,0.7,0.7s-0.3,0.7-0.7,0.7S84.1,6,84.1,5.6S84.4,4.9,84.8,4.9z M85.4,9.6c0,0.4-0.3,0.7-0.7,0.7
				s-0.7-0.3-0.7-0.7s0.3-0.7,0.7-0.7S85.4,9.2,85.4,9.6z"/>
			<path class="st2" d="M92.4,4.6c0,0.4-0.3,0.7-0.7,0.7c-0.2,0-0.4-0.1-0.5-0.2c-0.1,0.1-0.3,0.2-0.5,0.2s-0.4-0.1-0.5-0.2
				c0,0,0,0,0,0c0.1,0.1,0.2,0.3,0.2,0.5S90.4,6,90.2,6.1c0.1,0.1,0.2,0.3,0.2,0.5c0,0.2-0.1,0.4-0.2,0.5c0.1,0.1,0.2,0.3,0.2,0.5
				S90.4,8,90.2,8.1c0.1,0.1,0.2,0.3,0.2,0.5c0,0.2-0.1,0.4-0.2,0.5c0.1,0.1,0.2,0.3,0.2,0.5s-0.1,0.4-0.2,0.5
				c0.1,0.1,0.2,0.3,0.2,0.5c0,0.4-0.3,0.7-0.7,0.7s-0.7-0.3-0.7-0.7c0-0.2,0.1-0.4,0.2-0.5c-0.1-0.1-0.2-0.3-0.2-0.5
				s0.1-0.4,0.2-0.5c-0.1-0.1-0.2-0.3-0.2-0.5c0-0.2,0.1-0.4,0.2-0.5c-0.1-0.1-0.2-0.3-0.2-0.5s0.1-0.4,0.2-0.5
				c-0.1-0.1-0.2-0.3-0.2-0.5c0-0.2,0.1-0.4,0.2-0.5c-0.1-0.1-0.2-0.3-0.2-0.5s0.1-0.4,0.2-0.5c0,0,0,0,0,0
				c-0.1,0.1-0.3,0.2-0.5,0.2c-0.2,0-0.4-0.1-0.5-0.2c-0.1,0.1-0.3,0.2-0.5,0.2c-0.4,0-0.7-0.3-0.7-0.7s0.3-0.7,0.7-0.7
				c0.2,0,0.4,0.1,0.5,0.2c0.1-0.1,0.3-0.2,0.5-0.2c0.2,0,0.4,0.1,0.5,0.2c0.1-0.1,0.3-0.2,0.5-0.2s0.4,0.1,0.5,0.2
				c0.1-0.1,0.3-0.2,0.5-0.2s0.4,0.1,0.5,0.2c0.1-0.1,0.3-0.2,0.5-0.2C92.1,3.9,92.4,4.2,92.4,4.6z"/>
			<path class="st2" d="M95.7,8.1c0.1,0.1,0.2,0.3,0.2,0.5c0,0.2-0.1,0.4-0.2,0.5c0.1,0.1,0.2,0.3,0.2,0.5s-0.1,0.4-0.2,0.5
				c0,0,0,0,0,0c0.1-0.1,0.3-0.2,0.5-0.2c0.2,0,0.4,0.1,0.5,0.2c0.1-0.1,0.3-0.2,0.5-0.2s0.4,0.1,0.5,0.2c0.1-0.1,0.3-0.2,0.5-0.2
				c0.4,0,0.7,0.3,0.7,0.7s-0.3,0.7-0.7,0.7c-0.2,0-0.4-0.1-0.5-0.2c-0.1,0.1-0.3,0.2-0.5,0.2s-0.4-0.1-0.5-0.2
				c-0.1,0.1-0.3,0.2-0.5,0.2c-0.2,0-0.4-0.1-0.5-0.2c-0.1,0.1-0.3,0.2-0.5,0.2c-0.4,0-0.7-0.3-0.7-0.7c0-0.2,0.1-0.4,0.2-0.5
				c-0.1-0.1-0.2-0.3-0.2-0.5s0.1-0.4,0.2-0.5c-0.1-0.1-0.2-0.3-0.2-0.5c0-0.2,0.1-0.4,0.2-0.5c-0.1-0.1-0.2-0.3-0.2-0.5
				s0.1-0.4,0.2-0.5c-0.1-0.1-0.2-0.3-0.2-0.5c0-0.2,0.1-0.4,0.2-0.5c-0.1-0.1-0.2-0.3-0.2-0.5s0.1-0.4,0.2-0.5
				c-0.1-0.1-0.2-0.3-0.2-0.5c0-0.4,0.3-0.7,0.7-0.7c0.2,0,0.4,0.1,0.5,0.2c0.1-0.1,0.3-0.2,0.5-0.2c0.2,0,0.4,0.1,0.5,0.2
				c0.1-0.1,0.3-0.2,0.5-0.2s0.4,0.1,0.5,0.2c0.1-0.1,0.3-0.2,0.5-0.2c0.4,0,0.7,0.3,0.7,0.7s-0.3,0.7-0.7,0.7
				c-0.2,0-0.4-0.1-0.5-0.2c-0.1,0.1-0.3,0.2-0.5,0.2s-0.4-0.1-0.5-0.2c-0.1,0.1-0.3,0.2-0.5,0.2c-0.2,0-0.4-0.1-0.5-0.2
				c0,0,0,0,0,0c0.1,0.1,0.2,0.3,0.2,0.5S95.9,6,95.7,6.1c0.1,0.1,0.2,0.3,0.2,0.5c0,0.2-0.1,0.4-0.2,0.5c0,0,0,0,0,0
				c0.1-0.1,0.3-0.2,0.5-0.2c0.2,0,0.4,0.1,0.5,0.2c0.1-0.1,0.3-0.2,0.5-0.2s0.4,0.1,0.5,0.2c0.1-0.1,0.3-0.2,0.5-0.2
				c0.4,0,0.7,0.3,0.7,0.7s-0.3,0.7-0.7,0.7c-0.2,0-0.4-0.1-0.5-0.2c-0.1,0.1-0.3,0.2-0.5,0.2s-0.4-0.1-0.5-0.2
				c-0.1,0.1-0.3,0.2-0.5,0.2C96.1,8.3,95.9,8.2,95.7,8.1C95.7,8.1,95.7,8.1,95.7,8.1z"/>
			<path class="st2" d="M101.8,6.1c-0.1-0.1-0.2-0.3-0.2-0.5c0-0.4,0.3-0.7,0.7-0.7c0.4,0,0.7,0.3,0.7,0.7c0,0.2-0.1,0.4-0.2,0.5
				c0.1,0.1,0.2,0.3,0.2,0.5c0,0.4-0.3,0.7-0.7,0.7c-0.4,0-0.7-0.3-0.7-0.7C101.6,6.4,101.7,6.2,101.8,6.1z M102.3,10.3
				c-0.4,0-0.7-0.3-0.7-0.7s0.3-0.7,0.7-0.7c0.4,0,0.7,0.3,0.7,0.7S102.6,10.3,102.3,10.3z M102.6,4.6c0-0.4,0.3-0.7,0.7-0.7
				c0.2,0,0.4,0.1,0.5,0.2c0.1-0.1,0.3-0.2,0.5-0.2s0.4,0.1,0.5,0.2c0.1-0.1,0.3-0.2,0.5-0.2c0.4,0,0.7,0.3,0.7,0.7
				s-0.3,0.7-0.7,0.7c-0.2,0-0.4-0.1-0.5-0.2c-0.1,0.1-0.3,0.2-0.5,0.2s-0.4-0.1-0.5-0.2c-0.1,0.1-0.3,0.2-0.5,0.2
				C102.9,5.3,102.6,5,102.6,4.6z M105.9,7.6c0,0.4-0.3,0.7-0.7,0.7c-0.2,0-0.4-0.1-0.5-0.2c-0.1,0.1-0.3,0.2-0.5,0.2
				s-0.4-0.1-0.5-0.2c-0.1,0.1-0.3,0.2-0.5,0.2c-0.4,0-0.7-0.3-0.7-0.7s0.3-0.7,0.7-0.7c0.2,0,0.4,0.1,0.5,0.2
				c0.1-0.1,0.3-0.2,0.5-0.2s0.4,0.1,0.5,0.2c0.1-0.1,0.3-0.2,0.5-0.2C105.6,6.9,105.9,7.2,105.9,7.6z M105.9,10.6
				c0,0.4-0.3,0.7-0.7,0.7c-0.2,0-0.4-0.1-0.5-0.2c-0.1,0.1-0.3,0.2-0.5,0.2s-0.4-0.1-0.5-0.2c-0.1,0.1-0.3,0.2-0.5,0.2
				c-0.4,0-0.7-0.3-0.7-0.7s0.3-0.7,0.7-0.7c0.2,0,0.4,0.1,0.5,0.2c0.1-0.1,0.3-0.2,0.5-0.2s0.4,0.1,0.5,0.2
				c0.1-0.1,0.3-0.2,0.5-0.2C105.6,9.9,105.9,10.2,105.9,10.6z M106.3,4.9c0.4,0,0.7,0.3,0.7,0.7s-0.3,0.7-0.7,0.7s-0.7-0.3-0.7-0.7
				S105.9,4.9,106.3,4.9z M106.7,9.1c0.1,0.1,0.2,0.3,0.2,0.5c0,0.4-0.3,0.7-0.7,0.7s-0.7-0.3-0.7-0.7c0-0.2,0.1-0.4,0.2-0.5
				c-0.1-0.1-0.2-0.3-0.2-0.5c0-0.4,0.3-0.7,0.7-0.7s0.7,0.3,0.7,0.7C106.9,8.8,106.9,9,106.7,9.1z"/>
		</g>
		<circle class="st2" cx="0.6" cy="6.6" r="0.6"/>
		<circle class="st2" cx="0.6" cy="7.7" r="0.6"/>
		<circle class="st2" cx="0.6" cy="8.7" r="0.6"/>
		<circle class="st2" cx="6.6" cy="7.7" r="0.6"/>
		<circle class="st2" cx="6.6" cy="8.7" r="0.6"/>
		<circle class="st2" cx="8.6" cy="7.7" r="0.6"/>
		<circle class="st2" cx="15.6" cy="7.7" r="0.6"/>
		<circle class="st2" cx="8.6" cy="8.7" r="0.6"/>
		<circle class="st2" cx="14.6" cy="8.7" r="0.6"/>
		<circle class="st2" cx="2.6" cy="11.7" r="0.6"/>
		<circle class="st2" cx="1.6" cy="10.7" r="0.6"/>
		<circle class="st2" cx="1.6" cy="9.7" r="0.6"/>
		<circle class="st2" cx="7.6" cy="10.7" r="0.6"/>
		<circle class="st2" cx="12.6" cy="10.7" r="0.6"/>
		<circle class="st2" cx="7.6" cy="9.7" r="0.6"/>
		<circle class="st2" cx="13.6" cy="9.7" r="0.6"/>
		<circle class="st2" cx="3.6" cy="12.7" r="0.6"/>
		<circle class="st2" cx="4.6" cy="12.7" r="0.6"/>
		<circle class="st2" cx="5.6" cy="12.7" r="0.6"/>
		<circle class="st2" cx="3.6" cy="2.6" r="0.6"/>
		<circle class="st2" cx="2.6" cy="3.6" r="0.6"/>
		<circle class="st2" cx="1.6" cy="4.6" r="0.6"/>
		<circle class="st2" cx="1.6" cy="5.6" r="0.6"/>
		<circle class="st2" cx="5.6" cy="4.6" r="0.6"/>
		<circle class="st2" cx="5.6" cy="5.6" r="0.6"/>
		<circle class="st2" cx="5.6" cy="6.6" r="0.6"/>
		<circle class="st2" cx="9.6" cy="4.6" r="0.6"/>
		<circle class="st2" cx="9.6" cy="5.6" r="0.6"/>
		<circle class="st2" cx="12.6" cy="5.6" r="0.6"/>
		<circle class="st2" cx="4.6" cy="2.6" r="0.6"/>
		<circle class="st2" cx="5.6" cy="2.6" r="0.6"/>
		<circle class="st2" cx="13.6" cy="4.6" r="0.6"/>
		<circle class="st2" cx="14.6" cy="4.6" r="0.6"/>
		<circle class="st2" cx="15.6" cy="4.6" r="0.6"/>
		<circle class="st2" cx="20.6" cy="4.6" r="0.6"/>
		<circle class="st2" cx="21.6" cy="4.6" r="0.6"/>
		<circle class="st2" cx="22.6" cy="4.6" r="0.6"/>
		<circle class="st2" cx="20.6" cy="7.7" r="0.6"/>
		<circle class="st2" cx="21.6" cy="7.7" r="0.6"/>
		<circle class="st2" cx="22.6" cy="7.7" r="0.6"/>
		<circle class="st2" cx="20.6" cy="10.7" r="0.6"/>
		<circle class="st2" cx="21.6" cy="10.7" r="0.6"/>
		<circle class="st2" cx="22.6" cy="10.7" r="0.6"/>
		<circle class="st2" cx="13.6" cy="0.6" r="0.6"/>
		<circle class="st2" cx="12.6" cy="0.6" r="0.6"/>
		<circle class="st2" cx="11.6" cy="0.6" r="0.6"/>
		<circle class="st2" cx="10.6" cy="0.6" r="0.6"/>
		<circle class="st2" cx="9.6" cy="1.6" r="0.6"/>
		<circle class="st2" cx="8.6" cy="1.6" r="0.6"/>
		<circle class="st2" cx="9.6" cy="13.7" r="0.6"/>
		<circle class="st2" cx="8.6" cy="13.7" r="0.6"/>
		<circle class="st2" cx="7.6" cy="1.6" r="0.6"/>
		<circle class="st2" cx="6.6" cy="1.6" r="0.6"/>
		<circle class="st2" cx="7.6" cy="13.7" r="0.6"/>
		<circle class="st2" cx="6.6" cy="13.7" r="0.6"/>
		<circle class="st2" cx="16.6" cy="10.7" r="0.6"/>
		<circle class="st2" cx="15.6" cy="10.7" r="0.6"/>
		<circle class="st2" cx="14.6" cy="10.7" r="0.6"/>
		<circle class="st2" cx="13.6" cy="10.7" r="0.6"/>
		<circle class="st2" cx="10.6" cy="14.7" r="0.6"/>
		<circle class="st2" cx="11.6" cy="14.7" r="0.6"/>
		<circle class="st2" cx="14.6" cy="0.6" r="0.6"/>
		<circle class="st2" cx="15.6" cy="0.6" r="0.6"/>
		<circle class="st2" cx="16.6" cy="0.6" r="0.6"/>
		<circle class="st2" cx="17.6" cy="0.6" r="0.6"/>
		<circle class="st2" cx="18.6" cy="0.6" r="0.6"/>
		<circle class="st2" cx="19.6" cy="1.6" r="0.6"/>
		<circle class="st2" cx="20.6" cy="1.6" r="0.6"/>
		<circle class="st2" cx="17.6" cy="14.7" r="0.6"/>
		<circle class="st2" cx="18.6" cy="14.7" r="0.6"/>
		<circle class="st2" cx="19.6" cy="13.7" r="0.6"/>
		<circle class="st2" cx="20.6" cy="13.7" r="0.6"/>
		<circle class="st2" cx="21.6" cy="1.6" r="0.6"/>
		<circle class="st2" cx="21.6" cy="13.7" r="0.6"/>
		<circle class="st2" cx="22.6" cy="1.6" r="0.6"/>
		<circle class="st2" cx="22.6" cy="13.7" r="0.6"/>
		<circle class="st2" cx="13.6" cy="14.7" r="0.6"/>
		<circle class="st2" cx="12.6" cy="14.7" r="0.6"/>
		<circle class="st2" cx="14.6" cy="14.7" r="0.6"/>
		<circle class="st2" cx="15.6" cy="14.7" r="0.6"/>
		<circle class="st2" cx="16.6" cy="14.7" r="0.6"/>
		<circle class="st2" cx="28.7" cy="8.7" r="0.6"/>
		<circle class="st2" cx="28.7" cy="7.7" r="0.6"/>
		<circle class="st2" cx="28.7" cy="6.6" r="0.6"/>
		<circle class="st2" cx="26.7" cy="3.6" r="0.6"/>
		<circle class="st2" cx="27.7" cy="4.6" r="0.6"/>
		<circle class="st2" cx="27.7" cy="5.6" r="0.6"/>
		<circle class="st2" cx="25.6" cy="2.6" r="0.6"/>
		<circle class="st2" cx="24.6" cy="2.6" r="0.6"/>
		<circle class="st2" cx="23.6" cy="2.6" r="0.6"/>
		<circle class="st2" cx="25.6" cy="12.7" r="0.6"/>
		<circle class="st2" cx="26.7" cy="11.7" r="0.6"/>
		<circle class="st2" cx="27.6" cy="10.7" r="0.6"/>
		<circle class="st2" cx="27.6" cy="9.7" r="0.6"/>
		<circle class="st2" cx="24.6" cy="12.7" r="0.6"/>
		<circle class="st2" cx="23.6" cy="12.7" r="0.6"/>
		<circle class="st2" cx="9.6" cy="6.6" r="0.6"/>
		<circle class="st2" cx="16.6" cy="5.6" r="0.6"/>
		<circle class="st2" cx="16.6" cy="6.6" r="0.6"/>
		<circle class="st2" cx="19.6" cy="5.6" r="0.6"/>
		<circle class="st2" cx="19.6" cy="6.6" r="0.6"/>
		<circle class="st2" cx="23.6" cy="5.6" r="0.6"/>
		<circle class="st2" cx="19.6" cy="9.7" r="0.6"/>
		<circle class="st2" cx="23.6" cy="8.7" r="0.6"/>
		<circle class="st2" cx="23.6" cy="9.7" r="0.6"/>
	</g>
</g>
<g id="Calque_2">
</g>
</svg>
