<?xml version="1.0" encoding="utf-8"?>
<!-- Generator: Adobe Illustrator 22.1.0, SVG Export Plug-In . SVG Version: 6.00 Build 0)  -->
<svg version="1.1" id="Calque_1" xmlns="http://www.w3.org/2000/svg" xmlns:xlink="http://www.w3.org/1999/xlink" x="0px" y="0px"
	 viewBox="0 0 140 21" style="enable-background:new 0 0 140 21;" xml:space="preserve">
<style type="text/css">
	.st0{fill:#1D1D1B;}
</style>
<g>
	<g>
		<path class="st0" d="M689.6,119.7c0,0.5-0.4,1-0.9,1s-1-0.4-1-1s0.4-1,1-1C689.2,118.7,689.6,119.1,689.6,119.7"/>
		<path class="st0" d="M689.6,121.1c0,0.5-0.4,1-0.9,1s-1-0.4-1-1c0-0.6,0.4-1,1-1C689.2,120.1,689.6,120.6,689.6,121.1"/>
		<path class="st0" d="M689.6,122.5c0,0.5-0.4,1-0.9,1s-1-0.4-1-1c0-0.5,0.4-0.9,1-0.9C689.2,121.5,689.6,122,689.6,122.5"/>
		<path class="st0" d="M698,121.1c0,0.5-0.4,1-1,1c-0.5,0-0.9-0.4-0.9-1c0-0.6,0.4-1,0.9-1C697.6,120.1,698,120.6,698,121.1"/>
		<path class="st0" d="M698,122.5c0,0.5-0.4,1-1,1c-0.5,0-0.9-0.4-0.9-1c0-0.5,0.4-0.9,0.9-0.9C697.6,121.5,698,122,698,122.5"/>
		<path class="st0" d="M700.8,121.1c0,0.5-0.4,1-1,1c-0.5,0-1-0.4-1-1c0-0.6,0.4-1,1-1C700.4,120.1,700.8,120.6,700.8,121.1"/>
		<path class="st0" d="M710.6,121.1c0,0.5-0.4,1-0.9,1s-1-0.4-1-1c0-0.6,0.4-1,1-1C710.1,120.1,710.6,120.6,710.6,121.1"/>
		<path class="st0" d="M700.8,122.5c0,0.5-0.4,1-1,1c-0.5,0-1-0.4-1-1c0-0.5,0.4-0.9,1-0.9C700.4,121.5,700.8,122,700.8,122.5"/>
		<path class="st0" d="M709.2,122.5c0,0.5-0.4,1-1,1c-0.5,0-1-0.4-1-1c0-0.5,0.4-0.9,1-0.9C708.7,121.5,709.2,122,709.2,122.5"/>
		<path class="st0" d="M692.4,126.7c0,0.5-0.4,1-1,1c-0.5,0-1-0.4-1-1c0-0.5,0.4-0.9,1-0.9S692.4,126.2,692.4,126.7"/>
		<path class="st0" d="M691,125.3c0,0.5-0.4,1-1,1s-1-0.4-1-1c0-0.5,0.4-0.9,1-0.9S691,124.8,691,125.3"/>
		<path class="st0" d="M691,123.9c0,0.5-0.4,1-1,1s-1-0.4-1-1c0-0.5,0.4-0.9,1-0.9S691,123.4,691,123.9"/>
		<path class="st0" d="M699.4,125.3c0,0.5-0.4,1-1,1c-0.5,0-1-0.4-1-1c0-0.5,0.4-0.9,1-0.9S699.4,124.8,699.4,125.3"/>
		<path class="st0" d="M706.4,125.3c0,0.5-0.4,1-0.9,1s-1-0.4-1-1c0-0.5,0.4-0.9,1-0.9C706,124.4,706.4,124.8,706.4,125.3"/>
		<path class="st0" d="M699.4,123.9c0,0.5-0.4,1-1,1c-0.5,0-1-0.4-1-1c0-0.5,0.4-0.9,1-0.9S699.4,123.4,699.4,123.9"/>
		<path class="st0" d="M707.8,123.9c0,0.5-0.4,1-1,1c-0.5,0-0.9-0.4-0.9-1c0-0.5,0.4-0.9,0.9-0.9C707.4,123,707.8,123.4,707.8,123.9
			"/>
		<path class="st0" d="M693.8,128.1c0,0.5-0.4,0.9-1,0.9s-1-0.4-1-0.9c0-0.5,0.4-1,1-1S693.8,127.6,693.8,128.1"/>
		<path class="st0" d="M695.2,128.1c0,0.5-0.4,0.9-1,0.9s-1-0.4-1-0.9c0-0.5,0.4-1,1-1S695.2,127.6,695.2,128.1"/>
		<path class="st0" d="M696.6,128.1c0,0.5-0.4,0.9-1,0.9c-0.5,0-1-0.4-1-0.9c0-0.5,0.4-1,1-1C696.1,127.2,696.6,127.6,696.6,128.1"
			/>
		<path class="st0" d="M693.8,114c0,0.5-0.4,1-1,1s-1-0.4-1-1c0-0.5,0.4-0.9,1-0.9S693.8,113.5,693.8,114"/>
		<path class="st0" d="M692.4,115.4c0,0.5-0.4,1-1,1c-0.5,0-1-0.4-1-1c0-0.5,0.4-0.9,1-0.9S692.4,114.9,692.4,115.4"/>
		<path class="st0" d="M691,116.8c0,0.5-0.4,1-1,1c-0.5,0-1-0.4-1-1c0-0.5,0.4-0.9,1-0.9S691,116.3,691,116.8"/>
		<path class="st0" d="M691,118.3c0,0.5-0.4,1-1,1c-0.5,0-1-0.4-1-1c0-0.5,0.4-0.9,1-0.9C690.6,117.3,691,117.7,691,118.3"/>
		<path class="st0" d="M696.6,116.8c0,0.5-0.4,1-1,1c-0.5,0-1-0.4-1-1c0-0.5,0.4-0.9,1-0.9C696.1,115.9,696.6,116.3,696.6,116.8"/>
		<path class="st0" d="M696.6,118.3c0,0.5-0.4,1-1,1c-0.5,0-1-0.4-1-1c0-0.5,0.4-0.9,1-0.9C696.1,117.3,696.6,117.7,696.6,118.3"/>
		<path class="st0" d="M696.6,119.7c0,0.5-0.4,1-1,1c-0.5,0-1-0.4-1-1s0.4-1,1-1C696.1,118.7,696.6,119.1,696.6,119.7"/>
		<path class="st0" d="M702.2,116.8c0,0.5-0.4,1-0.9,1s-1-0.4-1-1c0-0.5,0.4-0.9,1-0.9C701.8,115.9,702.2,116.3,702.2,116.8"/>
		<path class="st0" d="M702.2,118.3c0,0.5-0.4,1-0.9,1s-1-0.4-1-1c0-0.5,0.4-0.9,1-0.9C701.8,117.3,702.2,117.7,702.2,118.3"/>
		<path class="st0" d="M706.4,118.3c0,0.5-0.4,1-0.9,1s-1-0.4-1-1c0-0.5,0.4-0.9,1-0.9C706,117.3,706.4,117.7,706.4,118.3"/>
		<path class="st0" d="M695.2,114c0,0.5-0.4,1-1,1s-1-0.4-1-1c0-0.5,0.4-0.9,1-0.9S695.2,113.5,695.2,114"/>
		<path class="st0" d="M696.6,114c0,0.5-0.4,1-1,1c-0.5,0-1-0.4-1-1c0-0.5,0.4-0.9,1-0.9C696.1,113.1,696.6,113.5,696.6,114"/>
		<path class="st0" d="M707.8,116.8c0,0.5-0.4,1-1,1c-0.5,0-0.9-0.4-0.9-1c0-0.5,0.4-0.9,0.9-0.9
			C707.4,115.9,707.8,116.3,707.8,116.8"/>
		<path class="st0" d="M709.2,116.8c0,0.5-0.4,1-1,1c-0.5,0-1-0.4-1-1c0-0.5,0.4-0.9,1-0.9C708.7,115.9,709.2,116.3,709.2,116.8"/>
		<path class="st0" d="M710.6,116.8c0,0.5-0.4,1-0.9,1s-1-0.4-1-1c0-0.5,0.4-0.9,1-0.9C710.1,115.9,710.6,116.3,710.6,116.8"/>
		<path class="st0" d="M717.6,116.8c0,0.5-0.4,1-1,1c-0.5,0-1-0.4-1-1c0-0.5,0.4-0.9,1-0.9C717.1,115.9,717.6,116.3,717.6,116.8"/>
		<path class="st0" d="M719,116.8c0,0.5-0.4,1-0.9,1s-1-0.4-1-1c0-0.5,0.4-0.9,1-0.9C718.5,115.9,719,116.3,719,116.8"/>
		<path class="st0" d="M720.4,116.8c0,0.5-0.4,1-0.9,1s-1-0.4-1-1c0-0.5,0.4-0.9,1-0.9C719.9,115.9,720.4,116.3,720.4,116.8"/>
		<path class="st0" d="M717.6,121.1c0,0.5-0.4,1-1,1c-0.5,0-1-0.4-1-1c0-0.6,0.4-1,1-1C717.1,120.1,717.6,120.6,717.6,121.1"/>
		<path class="st0" d="M719,121.1c0,0.5-0.4,1-0.9,1s-1-0.4-1-1c0-0.6,0.4-1,1-1C718.5,120.1,719,120.6,719,121.1"/>
		<path class="st0" d="M720.4,121.1c0,0.5-0.4,1-0.9,1s-1-0.4-1-1c0-0.6,0.4-1,1-1C719.9,120.1,720.4,120.6,720.4,121.1"/>
		<path class="st0" d="M717.6,125.3c0,0.5-0.4,1-1,1c-0.5,0-1-0.4-1-1c0-0.5,0.4-0.9,1-0.9C717.1,124.4,717.6,124.8,717.6,125.3"/>
		<path class="st0" d="M719,125.3c0,0.5-0.4,1-0.9,1s-1-0.4-1-1c0-0.5,0.4-0.9,1-0.9C718.5,124.4,719,124.8,719,125.3"/>
		<path class="st0" d="M720.4,125.3c0,0.5-0.4,1-0.9,1s-1-0.4-1-1c0-0.5,0.4-0.9,1-0.9C719.9,124.4,720.4,124.8,720.4,125.3"/>
		<path class="st0" d="M707.8,111.2c0,0.5-0.4,0.9-1,0.9c-0.5,0-0.9-0.4-0.9-0.9s0.4-0.9,0.9-0.9
			C707.4,110.3,707.8,110.7,707.8,111.2"/>
		<path class="st0" d="M706.4,111.2c0,0.5-0.4,0.9-0.9,0.9s-1-0.4-1-0.9s0.4-0.9,1-0.9C706,110.3,706.4,110.7,706.4,111.2"/>
		<path class="st0" d="M705,111.2c0,0.5-0.4,0.9-0.9,0.9s-1-0.4-1-0.9s0.4-0.9,1-0.9C704.6,110.3,705,110.7,705,111.2"/>
		<path class="st0" d="M703.6,111.2c0,0.5-0.4,0.9-1,0.9c-0.5,0-0.9-0.4-0.9-0.9s0.4-0.9,0.9-0.9
			C703.2,110.3,703.6,110.7,703.6,111.2"/>
		<path class="st0" d="M702.2,112.6c0,0.5-0.4,1-0.9,1s-1-0.4-1-1c0-0.5,0.4-0.9,1-0.9C701.8,111.7,702.2,112.1,702.2,112.6"/>
		<path class="st0" d="M700.8,112.6c0,0.5-0.4,1-1,1c-0.5,0-1-0.4-1-1c0-0.5,0.4-0.9,1-0.9C700.4,111.7,700.8,112.1,700.8,112.6"/>
		<path class="st0" d="M702.2,129.5c0,0.5-0.4,1-0.9,1s-1-0.4-1-1c0-0.5,0.4-0.9,1-0.9C701.8,128.6,702.2,129,702.2,129.5"/>
		<path class="st0" d="M700.8,129.5c0,0.5-0.4,1-1,1c-0.5,0-1-0.4-1-1c0-0.5,0.4-0.9,1-0.9C700.4,128.6,700.8,129,700.8,129.5"/>
		<path class="st0" d="M699.4,112.6c0,0.5-0.4,1-1,1c-0.5,0-1-0.4-1-1c0-0.5,0.4-0.9,1-0.9S699.4,112.1,699.4,112.6"/>
		<path class="st0" d="M698,112.6c0,0.5-0.4,1-1,1c-0.5,0-0.9-0.4-0.9-1c0-0.5,0.4-0.9,0.9-0.9C697.6,111.7,698,112.1,698,112.6"/>
		<path class="st0" d="M699.4,129.5c0,0.5-0.4,1-1,1c-0.5,0-1-0.4-1-1c0-0.5,0.4-0.9,1-0.9S699.4,129,699.4,129.5"/>
		<path class="st0" d="M698,129.5c0,0.5-0.4,1-1,1c-0.5,0-0.9-0.4-0.9-1c0-0.5,0.4-0.9,0.9-0.9C697.6,128.6,698,129,698,129.5"/>
		<path class="st0" d="M712,125.3c0,0.5-0.4,1-1,1c-0.5,0-1-0.4-1-1c0-0.5,0.4-0.9,1-0.9C711.5,124.4,712,124.8,712,125.3"/>
		<path class="st0" d="M710.6,125.3c0,0.5-0.4,1-0.9,1s-1-0.4-1-1c0-0.5,0.4-0.9,1-0.9C710.1,124.4,710.6,124.8,710.6,125.3"/>
		<path class="st0" d="M709.2,125.3c0,0.5-0.4,1-1,1c-0.5,0-1-0.4-1-1c0-0.5,0.4-0.9,1-0.9C708.7,124.4,709.2,124.8,709.2,125.3"/>
		<path class="st0" d="M707.8,125.3c0,0.5-0.4,1-1,1c-0.5,0-0.9-0.4-0.9-1c0-0.5,0.4-0.9,0.9-0.9
			C707.4,124.4,707.8,124.8,707.8,125.3"/>
		<path class="st0" d="M703.6,130.9c0,0.5-0.4,1-1,1c-0.5,0-0.9-0.4-0.9-1c0-0.5,0.4-0.9,0.9-0.9C703.2,130,703.6,130.4,703.6,130.9
			"/>
		<path class="st0" d="M705,130.9c0,0.5-0.4,1-0.9,1s-1-0.4-1-1c0-0.5,0.4-0.9,1-0.9C704.6,130,705,130.4,705,130.9"/>
		<path class="st0" d="M709.2,111.2c0,0.5-0.4,0.9-1,0.9c-0.5,0-1-0.4-1-0.9s0.4-0.9,1-0.9C708.7,110.3,709.2,110.7,709.2,111.2"/>
		<path class="st0" d="M710.6,111.2c0,0.5-0.4,0.9-0.9,0.9s-1-0.4-1-0.9s0.4-0.9,1-0.9C710.1,110.3,710.6,110.7,710.6,111.2"/>
		<path class="st0" d="M712,111.2c0,0.5-0.4,0.9-1,0.9c-0.5,0-1-0.4-1-0.9s0.4-0.9,1-0.9C711.5,110.3,712,110.7,712,111.2"/>
		<path class="st0" d="M713.4,111.2c0,0.5-0.4,0.9-1,0.9c-0.5,0-1-0.4-1-0.9s0.4-0.9,1-0.9C712.9,110.3,713.4,110.7,713.4,111.2"/>
		<path class="st0" d="M714.8,111.2c0,0.5-0.4,0.9-1,0.9c-0.5,0-0.9-0.4-0.9-0.9s0.4-0.9,0.9-0.9S714.8,110.7,714.8,111.2"/>
		<path class="st0" d="M716.2,112.6c0,0.5-0.4,1-1,1c-0.5,0-0.9-0.4-0.9-1c0-0.5,0.4-0.9,0.9-0.9S716.2,112.1,716.2,112.6"/>
		<path class="st0" d="M717.6,112.6c0,0.5-0.4,1-1,1c-0.5,0-1-0.4-1-1c0-0.5,0.4-0.9,1-0.9C717.1,111.7,717.6,112.1,717.6,112.6"/>
		<path class="st0" d="M713.4,130.9c0,0.5-0.4,1-1,1c-0.5,0-1-0.4-1-1c0-0.5,0.4-0.9,1-0.9C712.9,130,713.4,130.4,713.4,130.9"/>
		<path class="st0" d="M714.8,130.9c0,0.5-0.4,1-1,1c-0.5,0-0.9-0.4-0.9-1c0-0.5,0.4-0.9,0.9-0.9S714.8,130.4,714.8,130.9"/>
		<path class="st0" d="M716.2,129.5c0,0.5-0.4,1-1,1c-0.5,0-0.9-0.4-0.9-1c0-0.5,0.4-0.9,0.9-0.9S716.2,129,716.2,129.5"/>
		<path class="st0" d="M717.6,129.5c0,0.5-0.4,1-1,1c-0.5,0-1-0.4-1-1c0-0.5,0.4-0.9,1-0.9C717.1,128.6,717.6,129,717.6,129.5"/>
		<path class="st0" d="M719,112.6c0,0.5-0.4,1-0.9,1s-1-0.4-1-1c0-0.5,0.4-0.9,1-0.9C718.5,111.7,719,112.1,719,112.6"/>
		<path class="st0" d="M719,129.5c0,0.5-0.4,1-0.9,1s-1-0.4-1-1c0-0.5,0.4-0.9,1-0.9C718.5,128.6,719,129,719,129.5"/>
		<path class="st0" d="M720.4,112.6c0,0.5-0.4,1-0.9,1s-1-0.4-1-1c0-0.5,0.4-0.9,1-0.9C719.9,111.7,720.4,112.1,720.4,112.6"/>
		<path class="st0" d="M720.4,129.5c0,0.5-0.4,1-0.9,1s-1-0.4-1-1c0-0.5,0.4-0.9,1-0.9C719.9,128.6,720.4,129,720.4,129.5"/>
		<path class="st0" d="M707.8,130.9c0,0.5-0.4,1-1,1c-0.5,0-0.9-0.4-0.9-1c0-0.5,0.4-1,0.9-1C707.4,130,707.8,130.4,707.8,130.9"/>
		<path class="st0" d="M706.4,130.9c0,0.5-0.4,1-0.9,1s-1-0.4-1-1c0-0.5,0.4-1,1-1C706,130,706.4,130.4,706.4,130.9"/>
		<path class="st0" d="M709.2,130.9c0,0.5-0.4,1-1,1c-0.5,0-1-0.4-1-1c0-0.5,0.4-1,1-1C708.7,130,709.2,130.4,709.2,130.9"/>
		<path class="st0" d="M710.6,130.9c0,0.5-0.4,1-0.9,1s-1-0.4-1-1c0-0.5,0.4-1,1-1C710.1,130,710.6,130.4,710.6,130.9"/>
		<path class="st0" d="M712,130.9c0,0.5-0.4,1-1,1c-0.5,0-1-0.4-1-1c0-0.5,0.4-1,1-1C711.5,130,712,130.4,712,130.9"/>
		<path class="st0" d="M726.9,122.5c0-0.5,0.4-0.9,1-0.9s1,0.4,1,0.9s-0.4,1-1,1S726.9,123,726.9,122.5"/>
		<path class="st0" d="M726.9,121.1c0-0.5,0.4-1,1-1s1,0.4,1,1c0,0.6-0.4,1-1,1S726.9,121.6,726.9,121.1"/>
		<path class="st0" d="M726.9,119.7c0-0.5,0.4-1,1-1s1,0.4,1,1s-0.4,1-1,1S726.9,120.2,726.9,119.7"/>
		<path class="st0" d="M724.1,115.4c0-0.5,0.4-0.9,1-0.9s1,0.4,1,0.9s-0.4,1-1,1S724.1,116,724.1,115.4"/>
		<path class="st0" d="M725.5,116.8c0-0.5,0.4-0.9,1-0.9s1,0.4,1,0.9s-0.4,1-1,1S725.5,117.4,725.5,116.8"/>
		<path class="st0" d="M725.5,118.3c0-0.5,0.4-0.9,1-0.9s1,0.4,1,0.9s-0.4,1-1,1S725.5,118.8,725.5,118.3"/>
		<path class="st0" d="M722.7,114c0-0.5,0.4-0.9,1-0.9c0.5,0,1,0.4,1,0.9s-0.4,1-1,1C723.1,115,722.7,114.6,722.7,114"/>
		<path class="st0" d="M721.3,114c0-0.5,0.4-0.9,1-0.9c0.5,0,1,0.4,1,0.9s-0.4,1-1,1S721.3,114.6,721.3,114"/>
		<path class="st0" d="M719.9,114c0-0.5,0.4-0.9,1-0.9c0.5,0,1,0.4,1,0.9s-0.4,1-1,1C720.3,115,719.9,114.6,719.9,114"/>
		<path class="st0" d="M722.7,128.1c0-0.5,0.4-1,1-1c0.5,0,1,0.4,1,1c0,0.5-0.4,0.9-1,0.9C723.1,129.1,722.7,128.6,722.7,128.1"/>
		<path class="st0" d="M724.1,126.7c0-0.5,0.4-1,1-1s1,0.4,1,1c0,0.5-0.4,1-1,1S724.1,127.2,724.1,126.7"/>
		<path class="st0" d="M725.5,125.3c0-0.5,0.4-0.9,1-0.9c0.5,0,1,0.4,1,0.9s-0.4,1-1,1S725.5,125.8,725.5,125.3"/>
		<path class="st0" d="M725.5,123.9c0-0.5,0.4-0.9,1-0.9c0.5,0,1,0.4,1,0.9s-0.4,1-1,1S725.5,124.4,725.5,123.9"/>
		<path class="st0" d="M721.3,128.1c0-0.5,0.4-1,1-1c0.5,0,1,0.4,1,1c0,0.5-0.4,0.9-1,0.9C721.7,129.1,721.3,128.6,721.3,128.1"/>
		<path class="st0" d="M719.9,128.1c0-0.5,0.4-1,1-1c0.5,0,1,0.4,1,1c0,0.5-0.4,0.9-1,0.9C720.3,129.1,719.9,128.6,719.9,128.1"/>
		<path class="st0" d="M702.2,119.7c0,0.5-0.4,1-0.9,1s-1-0.4-1-1s0.4-1,1-1C701.8,118.7,702.2,119.1,702.2,119.7"/>
		<path class="st0" d="M712,118.3c0,0.5-0.4,1-1,1c-0.5,0-1-0.4-1-1c0-0.5,0.4-0.9,1-0.9C711.5,117.3,712,117.7,712,118.3"/>
		<path class="st0" d="M712,119.7c0,0.5-0.4,1-1,1c-0.5,0-1-0.4-1-1s0.4-1,1-1C711.5,118.7,712,119.1,712,119.7"/>
		<path class="st0" d="M716.2,118.3c0,0.5-0.4,1-1,1c-0.5,0-0.9-0.4-0.9-1c0-0.5,0.4-0.9,0.9-0.9
			C715.7,117.3,716.2,117.7,716.2,118.3"/>
		<path class="st0" d="M716.2,119.7c0,0.5-0.4,1-1,1c-0.5,0-0.9-0.4-0.9-1s0.4-1,0.9-1S716.2,119.1,716.2,119.7"/>
		<path class="st0" d="M721.8,118.3c0,0.5-0.4,1-1,1c-0.5,0-1-0.4-1-1c0-0.5,0.4-0.9,1-0.9C721.3,117.3,721.8,117.7,721.8,118.3"/>
		<path class="st0" d="M716.2,123.9c0,0.5-0.4,1-1,1c-0.5,0-0.9-0.4-0.9-1c0-0.5,0.4-0.9,0.9-0.9S716.2,123.4,716.2,123.9"/>
		<path class="st0" d="M721.8,122.5c0,0.5-0.4,1-1,1c-0.5,0-1-0.4-1-1c0-0.5,0.4-0.9,1-0.9C721.3,121.5,721.8,122,721.8,122.5"/>
		<path class="st0" d="M721.8,123.9c0,0.5-0.4,1-1,1c-0.5,0-1-0.4-1-1c0-0.5,0.4-0.9,1-0.9C721.3,123,721.8,123.4,721.8,123.9"/>
	</g>
	<text transform="matrix(1 0 0 1 731.2992 125.9602)" class="st0" style="font-family:'DRKrapkaRound-Medium'; font-size:14px;">ARCHITECTES</text>
</g>
<g>
	<g>
		<path class="st0" d="M708.7,171c0,0.4-0.3,0.7-0.7,0.7s-0.7-0.3-0.7-0.7s0.3-0.7,0.7-0.7S708.7,170.6,708.7,171"/>
		<path class="st0" d="M708.7,172c0,0.4-0.3,0.7-0.7,0.7s-0.7-0.3-0.7-0.7s0.3-0.7,0.7-0.7S708.7,171.6,708.7,172"/>
		<path class="st0" d="M708.7,173c0,0.4-0.3,0.7-0.7,0.7s-0.7-0.3-0.7-0.7s0.3-0.7,0.7-0.7S708.7,172.6,708.7,173"/>
		<path class="st0" d="M714.7,172c0,0.4-0.3,0.7-0.7,0.7s-0.7-0.3-0.7-0.7s0.3-0.7,0.7-0.7S714.7,171.6,714.7,172"/>
		<path class="st0" d="M714.7,173c0,0.4-0.3,0.7-0.7,0.7s-0.7-0.3-0.7-0.7s0.3-0.7,0.7-0.7S714.7,172.6,714.7,173"/>
		<path class="st0" d="M716.7,172c0,0.4-0.3,0.7-0.7,0.7s-0.7-0.3-0.7-0.7s0.3-0.7,0.7-0.7S716.7,171.6,716.7,172"/>
		<path class="st0" d="M723.7,172c0,0.4-0.3,0.7-0.7,0.7s-0.7-0.3-0.7-0.7s0.3-0.7,0.7-0.7S723.7,171.6,723.7,172"/>
		<path class="st0" d="M716.7,173c0,0.4-0.3,0.7-0.7,0.7s-0.7-0.3-0.7-0.7s0.3-0.7,0.7-0.7S716.7,172.6,716.7,173"/>
		<path class="st0" d="M722.7,173c0,0.4-0.3,0.7-0.7,0.7s-0.7-0.3-0.7-0.7s0.3-0.7,0.7-0.7S722.7,172.6,722.7,173"/>
		<path class="st0" d="M710.7,176c0,0.4-0.3,0.7-0.7,0.7s-0.7-0.3-0.7-0.7s0.3-0.7,0.7-0.7S710.7,175.6,710.7,176"/>
		<path class="st0" d="M709.7,175c0,0.4-0.3,0.7-0.7,0.7s-0.7-0.3-0.7-0.7s0.3-0.7,0.7-0.7S709.7,174.6,709.7,175"/>
		<path class="st0" d="M709.7,174c0,0.4-0.3,0.7-0.7,0.7s-0.7-0.3-0.7-0.7s0.3-0.7,0.7-0.7S709.7,173.6,709.7,174"/>
		<path class="st0" d="M715.7,175c0,0.4-0.3,0.7-0.7,0.7s-0.7-0.3-0.7-0.7s0.3-0.7,0.7-0.7S715.7,174.6,715.7,175"/>
		<path class="st0" d="M720.7,175c0,0.4-0.3,0.7-0.7,0.7s-0.7-0.3-0.7-0.7s0.3-0.7,0.7-0.7S720.7,174.6,720.7,175"/>
		<path class="st0" d="M715.7,174c0,0.4-0.3,0.7-0.7,0.7s-0.7-0.3-0.7-0.7s0.3-0.7,0.7-0.7S715.7,173.6,715.7,174"/>
		<path class="st0" d="M721.7,174c0,0.4-0.3,0.7-0.7,0.7s-0.7-0.3-0.7-0.7s0.3-0.7,0.7-0.7S721.7,173.6,721.7,174"/>
		<path class="st0" d="M711.7,177c0,0.4-0.3,0.7-0.7,0.7s-0.7-0.3-0.7-0.7s0.3-0.7,0.7-0.7S711.7,176.6,711.7,177"/>
		<path class="st0" d="M712.7,177c0,0.4-0.3,0.7-0.7,0.7s-0.7-0.3-0.7-0.7s0.3-0.7,0.7-0.7S712.7,176.6,712.7,177"/>
		<path class="st0" d="M713.7,177c0,0.4-0.3,0.7-0.7,0.7s-0.7-0.3-0.7-0.7s0.3-0.7,0.7-0.7S713.7,176.6,713.7,177"/>
		<path class="st0" d="M711.7,167c0,0.4-0.3,0.7-0.7,0.7s-0.7-0.3-0.7-0.7s0.3-0.7,0.7-0.7S711.7,166.6,711.7,167"/>
		<path class="st0" d="M710.7,168c0,0.4-0.3,0.7-0.7,0.7s-0.7-0.3-0.7-0.7s0.3-0.7,0.7-0.7S710.7,167.6,710.7,168"/>
		<path class="st0" d="M709.7,169c0,0.4-0.3,0.7-0.7,0.7s-0.7-0.3-0.7-0.7s0.3-0.7,0.7-0.7S709.7,168.6,709.7,169"/>
		<path class="st0" d="M709.7,170c0,0.4-0.3,0.7-0.7,0.7s-0.7-0.3-0.7-0.7s0.3-0.7,0.7-0.7S709.7,169.6,709.7,170"/>
		<path class="st0" d="M713.7,169c0,0.4-0.3,0.7-0.7,0.7s-0.7-0.3-0.7-0.7s0.3-0.7,0.7-0.7S713.7,168.6,713.7,169"/>
		<path class="st0" d="M713.7,170c0,0.4-0.3,0.7-0.7,0.7s-0.7-0.3-0.7-0.7s0.3-0.7,0.7-0.7S713.7,169.6,713.7,170"/>
		<path class="st0" d="M713.7,171c0,0.4-0.3,0.7-0.7,0.7s-0.7-0.3-0.7-0.7s0.3-0.7,0.7-0.7S713.7,170.6,713.7,171"/>
		<path class="st0" d="M717.7,169c0,0.4-0.3,0.7-0.7,0.7s-0.7-0.3-0.7-0.7s0.3-0.7,0.7-0.7S717.7,168.6,717.7,169"/>
		<path class="st0" d="M717.7,170c0,0.4-0.3,0.7-0.7,0.7s-0.7-0.3-0.7-0.7s0.3-0.7,0.7-0.7S717.7,169.6,717.7,170"/>
		<path class="st0" d="M720.7,170c0,0.4-0.3,0.7-0.7,0.7s-0.7-0.3-0.7-0.7s0.3-0.7,0.7-0.7S720.7,169.6,720.7,170"/>
		<path class="st0" d="M712.7,167c0,0.4-0.3,0.7-0.7,0.7s-0.7-0.3-0.7-0.7s0.3-0.7,0.7-0.7S712.7,166.6,712.7,167"/>
		<path class="st0" d="M713.7,167c0,0.4-0.3,0.7-0.7,0.7s-0.7-0.3-0.7-0.7s0.3-0.7,0.7-0.7S713.7,166.6,713.7,167"/>
		<path class="st0" d="M721.7,169c0,0.4-0.3,0.7-0.7,0.7s-0.7-0.3-0.7-0.7s0.3-0.7,0.7-0.7S721.7,168.6,721.7,169"/>
		<path class="st0" d="M722.7,169c0,0.4-0.3,0.7-0.7,0.7s-0.7-0.3-0.7-0.7s0.3-0.7,0.7-0.7S722.7,168.6,722.7,169"/>
		<path class="st0" d="M723.7,169c0,0.4-0.3,0.7-0.7,0.7s-0.7-0.3-0.7-0.7s0.3-0.7,0.7-0.7S723.7,168.6,723.7,169"/>
		<path class="st0" d="M728.6,169c0,0.4-0.3,0.7-0.7,0.7s-0.7-0.3-0.7-0.7s0.3-0.7,0.7-0.7S728.6,168.6,728.6,169"/>
		<path class="st0" d="M729.6,169c0,0.4-0.3,0.7-0.7,0.7s-0.7-0.3-0.7-0.7s0.3-0.7,0.7-0.7S729.6,168.6,729.6,169"/>
		<path class="st0" d="M730.6,169c0,0.4-0.3,0.7-0.7,0.7s-0.7-0.3-0.7-0.7s0.3-0.7,0.7-0.7S730.6,168.6,730.6,169"/>
		<path class="st0" d="M728.6,172c0,0.4-0.3,0.7-0.7,0.7s-0.7-0.3-0.7-0.7s0.3-0.7,0.7-0.7S728.6,171.6,728.6,172"/>
		<path class="st0" d="M729.6,172c0,0.4-0.3,0.7-0.7,0.7s-0.7-0.3-0.7-0.7s0.3-0.7,0.7-0.7S729.6,171.6,729.6,172"/>
		<path class="st0" d="M730.6,172c0,0.4-0.3,0.7-0.7,0.7s-0.7-0.3-0.7-0.7s0.3-0.7,0.7-0.7S730.6,171.6,730.6,172"/>
		<path class="st0" d="M728.6,175c0,0.4-0.3,0.7-0.7,0.7s-0.7-0.3-0.7-0.7s0.3-0.7,0.7-0.7S728.6,174.6,728.6,175"/>
		<path class="st0" d="M729.6,175c0,0.4-0.3,0.7-0.7,0.7s-0.7-0.3-0.7-0.7s0.3-0.7,0.7-0.7S729.6,174.6,729.6,175"/>
		<path class="st0" d="M730.6,175c0,0.4-0.3,0.7-0.7,0.7s-0.7-0.3-0.7-0.7s0.3-0.7,0.7-0.7S730.6,174.6,730.6,175"/>
		<path class="st0" d="M721.7,165c0,0.4-0.3,0.7-0.7,0.7s-0.7-0.3-0.7-0.7s0.3-0.7,0.7-0.7S721.7,164.6,721.7,165"/>
		<path class="st0" d="M720.7,165c0,0.4-0.3,0.7-0.7,0.7s-0.7-0.3-0.7-0.7s0.3-0.7,0.7-0.7S720.7,164.6,720.7,165"/>
		<path class="st0" d="M719.7,165c0,0.4-0.3,0.7-0.7,0.7s-0.7-0.3-0.7-0.7s0.3-0.7,0.7-0.7S719.7,164.6,719.7,165"/>
		<path class="st0" d="M718.7,165c0,0.4-0.3,0.7-0.7,0.7s-0.7-0.3-0.7-0.7s0.3-0.7,0.7-0.7S718.7,164.6,718.7,165"/>
		<path class="st0" d="M717.7,166c0,0.4-0.3,0.7-0.7,0.7s-0.7-0.3-0.7-0.7s0.3-0.7,0.7-0.7S717.7,165.6,717.7,166"/>
		<path class="st0" d="M716.7,166c0,0.4-0.3,0.7-0.7,0.7s-0.7-0.3-0.7-0.7s0.3-0.7,0.7-0.7S716.7,165.6,716.7,166"/>
		<path class="st0" d="M717.7,178c0,0.4-0.3,0.7-0.7,0.7s-0.7-0.3-0.7-0.7s0.3-0.7,0.7-0.7S717.7,177.6,717.7,178"/>
		<path class="st0" d="M716.7,178c0,0.4-0.3,0.7-0.7,0.7s-0.7-0.3-0.7-0.7s0.3-0.7,0.7-0.7S716.7,177.6,716.7,178"/>
		<path class="st0" d="M715.7,166c0,0.4-0.3,0.7-0.7,0.7s-0.7-0.3-0.7-0.7s0.3-0.7,0.7-0.7S715.7,165.6,715.7,166"/>
		<path class="st0" d="M714.7,166c0,0.4-0.3,0.7-0.7,0.7s-0.7-0.3-0.7-0.7s0.3-0.7,0.7-0.7S714.7,165.6,714.7,166"/>
		<path class="st0" d="M715.7,178c0,0.4-0.3,0.7-0.7,0.7s-0.7-0.3-0.7-0.7s0.3-0.7,0.7-0.7S715.7,177.6,715.7,178"/>
		<path class="st0" d="M714.7,178c0,0.4-0.3,0.7-0.7,0.7s-0.7-0.3-0.7-0.7s0.3-0.7,0.7-0.7S714.7,177.6,714.7,178"/>
		<path class="st0" d="M724.6,175c0,0.4-0.3,0.7-0.7,0.7s-0.7-0.3-0.7-0.7s0.3-0.7,0.7-0.7S724.6,174.6,724.6,175"/>
		<path class="st0" d="M723.7,175c0,0.4-0.3,0.7-0.7,0.7s-0.7-0.3-0.7-0.7s0.3-0.7,0.7-0.7S723.7,174.6,723.7,175"/>
		<path class="st0" d="M722.7,175c0,0.4-0.3,0.7-0.7,0.7s-0.7-0.3-0.7-0.7s0.3-0.7,0.7-0.7S722.7,174.6,722.7,175"/>
		<path class="st0" d="M721.7,175c0,0.4-0.3,0.7-0.7,0.7s-0.7-0.3-0.7-0.7s0.3-0.7,0.7-0.7S721.7,174.6,721.7,175"/>
		<path class="st0" d="M718.7,179c0,0.4-0.3,0.7-0.7,0.7s-0.7-0.3-0.7-0.7s0.3-0.7,0.7-0.7S718.7,178.6,718.7,179"/>
		<path class="st0" d="M719.7,179c0,0.4-0.3,0.7-0.7,0.7s-0.7-0.3-0.7-0.7s0.3-0.7,0.7-0.7S719.7,178.6,719.7,179"/>
		<path class="st0" d="M722.7,165c0,0.4-0.3,0.7-0.7,0.7s-0.7-0.3-0.7-0.7s0.3-0.7,0.7-0.7S722.7,164.6,722.7,165"/>
		<path class="st0" d="M723.7,165c0,0.4-0.3,0.7-0.7,0.7s-0.7-0.3-0.7-0.7s0.3-0.7,0.7-0.7S723.7,164.6,723.7,165"/>
		<path class="st0" d="M724.6,165c0,0.4-0.3,0.7-0.7,0.7s-0.7-0.3-0.7-0.7s0.3-0.7,0.7-0.7S724.6,164.6,724.6,165"/>
		<path class="st0" d="M725.6,165c0,0.4-0.3,0.7-0.7,0.7s-0.7-0.3-0.7-0.7s0.3-0.7,0.7-0.7S725.6,164.6,725.6,165"/>
		<path class="st0" d="M726.6,165c0,0.4-0.3,0.7-0.7,0.7s-0.7-0.3-0.7-0.7s0.3-0.7,0.7-0.7S726.6,164.6,726.6,165"/>
		<path class="st0" d="M727.6,166c0,0.4-0.3,0.7-0.7,0.7s-0.7-0.3-0.7-0.7s0.3-0.7,0.7-0.7S727.6,165.6,727.6,166"/>
		<path class="st0" d="M728.6,166c0,0.4-0.3,0.7-0.7,0.7s-0.7-0.3-0.7-0.7s0.3-0.7,0.7-0.7S728.6,165.6,728.6,166"/>
		<path class="st0" d="M725.6,179c0,0.4-0.3,0.7-0.7,0.7s-0.7-0.3-0.7-0.7s0.3-0.7,0.7-0.7S725.6,178.6,725.6,179"/>
		<path class="st0" d="M726.6,179c0,0.4-0.3,0.7-0.7,0.7s-0.7-0.3-0.7-0.7s0.3-0.7,0.7-0.7S726.6,178.6,726.6,179"/>
		<path class="st0" d="M727.6,178c0,0.4-0.3,0.7-0.7,0.7s-0.7-0.3-0.7-0.7s0.3-0.7,0.7-0.7S727.6,177.6,727.6,178"/>
		<path class="st0" d="M728.6,178c0,0.4-0.3,0.7-0.7,0.7s-0.7-0.3-0.7-0.7s0.3-0.7,0.7-0.7S728.6,177.6,728.6,178"/>
		<path class="st0" d="M729.6,166c0,0.4-0.3,0.7-0.7,0.7s-0.7-0.3-0.7-0.7s0.3-0.7,0.7-0.7S729.6,165.6,729.6,166"/>
		<path class="st0" d="M729.6,178c0,0.4-0.3,0.7-0.7,0.7s-0.7-0.3-0.7-0.7s0.3-0.7,0.7-0.7S729.6,177.6,729.6,178"/>
		<path class="st0" d="M730.6,166c0,0.4-0.3,0.7-0.7,0.7s-0.7-0.3-0.7-0.7s0.3-0.7,0.7-0.7S730.6,165.6,730.6,166"/>
		<path class="st0" d="M730.6,178c0,0.4-0.3,0.7-0.7,0.7s-0.7-0.3-0.7-0.7s0.3-0.7,0.7-0.7S730.6,177.6,730.6,178"/>
		<path class="st0" d="M721.7,179c0,0.4-0.3,0.7-0.7,0.7s-0.7-0.3-0.7-0.7s0.3-0.7,0.7-0.7S721.7,178.6,721.7,179"/>
		<path class="st0" d="M720.7,179c0,0.4-0.3,0.7-0.7,0.7s-0.7-0.3-0.7-0.7s0.3-0.7,0.7-0.7S720.7,178.6,720.7,179"/>
		<path class="st0" d="M722.7,179c0,0.4-0.3,0.7-0.7,0.7s-0.7-0.3-0.7-0.7s0.3-0.7,0.7-0.7S722.7,178.6,722.7,179"/>
		<path class="st0" d="M723.7,179c0,0.4-0.3,0.7-0.7,0.7s-0.7-0.3-0.7-0.7s0.3-0.7,0.7-0.7S723.7,178.6,723.7,179"/>
		<path class="st0" d="M724.6,179c0,0.4-0.3,0.7-0.7,0.7s-0.7-0.3-0.7-0.7s0.3-0.7,0.7-0.7S724.6,178.6,724.6,179"/>
		<path class="st0" d="M735.2,173c0-0.4,0.3-0.7,0.7-0.7s0.7,0.3,0.7,0.7c0,0.4-0.3,0.7-0.7,0.7S735.2,173.4,735.2,173"/>
		<path class="st0" d="M735.2,172c0-0.4,0.3-0.7,0.7-0.7s0.7,0.3,0.7,0.7s-0.3,0.7-0.7,0.7S735.2,172.4,735.2,172"/>
		<path class="st0" d="M735.2,171c0-0.4,0.3-0.7,0.7-0.7s0.7,0.3,0.7,0.7c0,0.4-0.3,0.7-0.7,0.7S735.2,171.3,735.2,171"/>
		<path class="st0" d="M733.3,168c0-0.4,0.3-0.7,0.7-0.7s0.7,0.3,0.7,0.7c0,0.4-0.3,0.7-0.7,0.7S733.3,168.3,733.3,168"/>
		<path class="st0" d="M734.2,169c0-0.4,0.3-0.7,0.7-0.7s0.7,0.3,0.7,0.7c0,0.4-0.3,0.7-0.7,0.7S734.2,169.3,734.2,169"/>
		<path class="st0" d="M734.2,170c0-0.4,0.3-0.7,0.7-0.7s0.7,0.3,0.7,0.7s-0.3,0.7-0.7,0.7S734.2,170.3,734.2,170"/>
		<path class="st0" d="M732.3,167c0-0.4,0.3-0.7,0.7-0.7s0.7,0.3,0.7,0.7c0,0.4-0.3,0.7-0.7,0.7S732.3,167.3,732.3,167"/>
		<path class="st0" d="M731.3,167c0-0.4,0.3-0.7,0.7-0.7s0.7,0.3,0.7,0.7c0,0.4-0.3,0.7-0.7,0.7S731.3,167.3,731.3,167"/>
		<path class="st0" d="M730.3,167c0-0.4,0.3-0.7,0.7-0.7s0.7,0.3,0.7,0.7c0,0.4-0.3,0.7-0.7,0.7S730.3,167.3,730.3,167"/>
		<path class="st0" d="M732.3,177c0-0.4,0.3-0.7,0.7-0.7s0.7,0.3,0.7,0.7s-0.3,0.7-0.7,0.7S732.3,177.4,732.3,177"/>
		<path class="st0" d="M733.3,176c0-0.4,0.3-0.7,0.7-0.7s0.7,0.3,0.7,0.7c0,0.4-0.3,0.7-0.7,0.7S733.3,176.4,733.3,176"/>
		<path class="st0" d="M734.2,175c0-0.4,0.3-0.7,0.7-0.7s0.7,0.3,0.7,0.7c0,0.4-0.3,0.7-0.7,0.7S734.2,175.4,734.2,175"/>
		<path class="st0" d="M734.2,174c0-0.4,0.3-0.7,0.7-0.7s0.7,0.3,0.7,0.7s-0.3,0.7-0.7,0.7S734.2,174.4,734.2,174"/>
		<path class="st0" d="M731.3,177c0-0.4,0.3-0.7,0.7-0.7s0.7,0.3,0.7,0.7s-0.3,0.7-0.7,0.7S731.3,177.4,731.3,177"/>
		<path class="st0" d="M730.3,177c0-0.4,0.3-0.7,0.7-0.7s0.7,0.3,0.7,0.7s-0.3,0.7-0.7,0.7S730.3,177.4,730.3,177"/>
		<path class="st0" d="M717.7,171c0,0.4-0.3,0.7-0.7,0.7s-0.7-0.3-0.7-0.7s0.3-0.7,0.7-0.7S717.7,170.6,717.7,171"/>
		<path class="st0" d="M724.6,170c0,0.4-0.3,0.7-0.7,0.7s-0.7-0.3-0.7-0.7s0.3-0.7,0.7-0.7S724.6,169.6,724.6,170"/>
		<path class="st0" d="M724.6,171c0,0.4-0.3,0.7-0.7,0.7s-0.7-0.3-0.7-0.7s0.3-0.7,0.7-0.7S724.6,170.6,724.6,171"/>
		<path class="st0" d="M727.6,170c0,0.4-0.3,0.7-0.7,0.7s-0.7-0.3-0.7-0.7s0.3-0.7,0.7-0.7S727.6,169.6,727.6,170"/>
		<path class="st0" d="M727.6,171c0,0.4-0.3,0.7-0.7,0.7s-0.7-0.3-0.7-0.7s0.3-0.7,0.7-0.7S727.6,170.6,727.6,171"/>
		<path class="st0" d="M731.6,170c0,0.4-0.3,0.7-0.7,0.7s-0.7-0.3-0.7-0.7s0.3-0.7,0.7-0.7S731.6,169.6,731.6,170"/>
		<path class="st0" d="M727.6,174c0,0.4-0.3,0.7-0.7,0.7s-0.7-0.3-0.7-0.7s0.3-0.7,0.7-0.7S727.6,173.6,727.6,174"/>
		<path class="st0" d="M731.6,173c0,0.4-0.3,0.7-0.7,0.7s-0.7-0.3-0.7-0.7s0.3-0.7,0.7-0.7S731.6,172.6,731.6,173"/>
		<path class="st0" d="M731.6,174c0,0.4-0.3,0.7-0.7,0.7s-0.7-0.3-0.7-0.7s0.3-0.7,0.7-0.7S731.6,173.6,731.6,174"/>
	</g>
	<text transform="matrix(1 0 0 1 738.4053 175.4602)" class="st0" style="font-family:'DRKrapkaRound-Medium'; font-size:10px;">ARCHITECTES</text>
</g>
<g>
	<g>
		<path class="st0" d="M1.9,9.1C1.9,9.6,1.5,10,1,10S0,9.6,0,9.1s0.4-0.9,0.9-0.9S1.9,8.6,1.9,9.1"/>
		<path class="st0" d="M1.9,10.5c0,0.5-0.4,0.9-0.9,0.9S0,11,0,10.5s0.4-0.9,0.9-0.9S1.9,10,1.9,10.5"/>
		<path class="st0" d="M1.9,11.9c0,0.5-0.4,0.9-0.9,0.9s-1-0.4-1-0.9S0.4,11,0.9,11S1.9,11.4,1.9,11.9"/>
		<path class="st0" d="M10.1,10.5c0,0.5-0.4,0.9-0.9,0.9S8.3,11,8.3,10.5s0.4-0.9,0.9-0.9C9.7,9.6,10.1,10,10.1,10.5"/>
		<path class="st0" d="M10.1,11.9c0,0.5-0.4,0.9-0.9,0.9s-0.9-0.4-0.9-0.9S8.7,11,9.2,11C9.7,11,10.1,11.4,10.1,11.9"/>
		<path class="st0" d="M12.8,10.5c0,0.5-0.4,0.9-0.9,0.9S11,11,11,10.5s0.4-0.9,0.9-0.9C12.4,9.6,12.8,10,12.8,10.5"/>
		<path class="st0" d="M22.4,10.5c0,0.5-0.4,0.9-0.9,0.9s-0.9-0.4-0.9-0.9s0.4-0.9,0.9-0.9C22,9.6,22.4,10,22.4,10.5"/>
		<path class="st0" d="M12.8,11.9c0,0.5-0.4,0.9-0.9,0.9S11,12.4,11,11.9s0.4-0.9,0.9-0.9C12.4,11,12.8,11.4,12.8,11.9"/>
		<path class="st0" d="M21,11.9c0,0.5-0.4,0.9-0.9,0.9s-0.9-0.4-0.9-0.9s0.4-0.9,0.9-0.9S21,11.4,21,11.9"/>
		<path class="st0" d="M4.6,16c0,0.5-0.4,0.9-0.9,0.9S2.8,16.5,2.8,16c0-0.5,0.4-0.9,0.9-0.9S4.6,15.5,4.6,16"/>
		<path class="st0" d="M3.2,14.6c0,0.5-0.4,0.9-0.9,0.9s-0.9-0.4-0.9-0.9s0.4-0.9,0.9-0.9S3.2,14.1,3.2,14.6"/>
		<path class="st0" d="M3.2,13.3c0,0.5-0.4,0.9-0.9,0.9s-0.9-0.4-0.9-0.9s0.4-0.9,0.9-0.9S3.2,12.8,3.2,13.3"/>
		<path class="st0" d="M11.4,14.6c0,0.5-0.4,0.9-0.9,0.9s-0.9-0.4-0.9-0.9s0.4-0.9,0.9-0.9S11.4,14.1,11.4,14.6"/>
		<path class="st0" d="M18.3,14.6c0,0.5-0.4,0.9-0.9,0.9s-0.9-0.4-0.9-0.9s0.4-0.9,0.9-0.9C17.8,13.7,18.3,14.1,18.3,14.6"/>
		<path class="st0" d="M11.4,13.3c0,0.5-0.4,0.9-0.9,0.9s-0.9-0.4-0.9-0.9s0.4-0.9,0.9-0.9S11.4,12.8,11.4,13.3"/>
		<path class="st0" d="M19.6,13.3c0,0.5-0.4,0.9-0.9,0.9s-0.9-0.4-0.9-0.9s0.4-0.9,0.9-0.9S19.6,12.8,19.6,13.3"/>
		<path class="st0" d="M6,17.4c0,0.5-0.4,0.9-0.9,0.9s-0.9-0.4-0.9-0.9s0.4-0.9,0.9-0.9S6,16.9,6,17.4"/>
		<path class="st0" d="M7.3,17.4c0,0.5-0.4,0.9-0.9,0.9s-0.9-0.4-0.9-0.9s0.4-0.9,0.9-0.9S7.3,16.9,7.3,17.4"/>
		<path class="st0" d="M8.7,17.4c0,0.5-0.4,0.9-0.9,0.9s-0.9-0.4-0.9-0.9s0.4-0.9,0.9-0.9S8.7,16.9,8.7,17.4"/>
		<path class="st0" d="M6,3.6c0,0.5-0.5,1-1,1s-0.9-0.5-0.9-1S4.5,2.7,5,2.7S6,3.1,6,3.6"/>
		<path class="st0" d="M4.6,5c0,0.5-0.4,0.9-0.9,0.9s-1-0.4-1-0.9s0.4-0.9,0.9-0.9S4.6,4.5,4.6,5"/>
		<path class="st0" d="M3.2,6.4c0,0.5-0.4,0.9-0.9,0.9S1.4,6.9,1.4,6.4s0.4-0.9,0.9-0.9S3.2,5.9,3.2,6.4"/>
		<path class="st0" d="M3.2,7.8c0,0.5-0.4,0.9-0.9,0.9S1.4,8.3,1.4,7.8s0.4-0.9,0.9-0.9S3.2,7.2,3.2,7.8"/>
		<path class="st0" d="M8.7,6.4c0,0.5-0.4,0.9-0.9,0.9s-1-0.4-1-0.9s0.4-0.9,0.9-0.9S8.7,5.9,8.7,6.4"/>
		<path class="st0" d="M8.7,7.8c0,0.5-0.4,0.9-0.9,0.9s-1-0.4-1-0.9s0.4-0.9,0.9-0.9S8.7,7.2,8.7,7.8"/>
		<path class="st0" d="M8.7,9.1c0,0.5-0.4,0.9-0.9,0.9s-1-0.4-1-0.9s0.4-0.9,0.9-0.9S8.7,8.6,8.7,9.1"/>
		<path class="st0" d="M14.2,6.4c0,0.5-0.4,0.9-0.9,0.9s-0.9-0.4-0.9-0.9s0.4-0.9,0.9-0.9C13.7,5.4,14.2,5.9,14.2,6.4"/>
		<path class="st0" d="M14.2,7.8c0,0.5-0.4,0.9-0.9,0.9s-0.9-0.4-0.9-0.9s0.4-0.9,0.9-0.9C13.7,6.8,14.2,7.2,14.2,7.8"/>
		<path class="st0" d="M18.3,7.8c0,0.5-0.4,0.9-0.9,0.9s-0.9-0.4-0.9-0.9s0.4-0.9,0.9-0.9C17.8,6.8,18.3,7.2,18.3,7.8"/>
		<path class="st0" d="M7.3,3.6c0,0.5-0.4,0.9-0.9,0.9S5.5,4.1,5.5,3.6s0.4-0.9,0.9-0.9S7.3,3.1,7.3,3.6"/>
		<path class="st0" d="M8.7,3.6c0,0.5-0.4,0.9-0.9,0.9s-1-0.4-1-0.9s0.4-0.9,1-0.9S8.7,3.1,8.7,3.6"/>
		<path class="st0" d="M19.6,6.4c0,0.5-0.4,0.9-0.9,0.9s-0.9-0.4-0.9-0.9s0.4-0.9,0.9-0.9S19.6,5.9,19.6,6.4"/>
		<path class="st0" d="M21,6.4c0,0.5-0.4,0.9-0.9,0.9s-0.9-0.4-0.9-0.9s0.4-0.9,0.9-0.9S21,5.9,21,6.4"/>
		<path class="st0" d="M22.4,6.4c0,0.5-0.4,0.9-0.9,0.9s-0.9-0.4-0.9-0.9s0.4-0.9,0.9-0.9C22,5.4,22.4,5.9,22.4,6.4"/>
		<path class="st0" d="M29.2,6.4c0,0.5-0.4,0.9-0.9,0.9s-0.9-0.4-0.9-0.9s0.4-0.9,0.9-0.9S29.2,5.9,29.2,6.4"/>
		<path class="st0" d="M30.6,6.4c0,0.5-0.4,0.9-0.9,0.9s-0.9-0.4-0.9-0.9s0.4-0.9,0.9-0.9S30.6,5.9,30.6,6.4"/>
		<path class="st0" d="M31.9,6.4c0,0.5-0.4,0.9-0.9,0.9s-0.9-0.4-0.9-0.9s0.4-0.9,0.9-0.9C31.5,5.4,31.9,5.9,31.9,6.4"/>
		<path class="st0" d="M29.2,10.5c0,0.5-0.4,0.9-0.9,0.9s-0.9-0.4-0.9-0.9s0.4-0.9,0.9-0.9S29.2,10,29.2,10.5"/>
		<path class="st0" d="M30.6,10.5c0,0.5-0.4,0.9-0.9,0.9s-0.9-0.4-0.9-0.9s0.4-0.9,0.9-0.9S30.6,10,30.6,10.5"/>
		<path class="st0" d="M31.9,10.5c0,0.5-0.4,0.9-0.9,0.9s-0.9-0.4-0.9-0.9s0.4-0.9,0.9-0.9C31.5,9.6,31.9,10,31.9,10.5"/>
		<path class="st0" d="M29.2,14.6c0,0.5-0.4,0.9-0.9,0.9s-0.9-0.4-0.9-0.9s0.4-0.9,0.9-0.9S29.2,14.1,29.2,14.6"/>
		<path class="st0" d="M30.6,14.6c0,0.5-0.4,0.9-0.9,0.9s-0.9-0.4-0.9-0.9s0.4-0.9,0.9-0.9S30.6,14.1,30.6,14.6"/>
		<path class="st0" d="M31.9,14.6c0,0.5-0.4,0.9-0.9,0.9s-0.9-0.4-0.9-0.9s0.4-0.9,0.9-0.9S31.9,14.1,31.9,14.6"/>
		<path class="st0" d="M19.6,0.9c0,0.5-0.4,0.9-0.9,0.9s-0.9-0.4-0.9-0.9S18.2,0,18.7,0S19.6,0.4,19.6,0.9"/>
		<path class="st0" d="M18.3,0.9c0,0.5-0.4,0.9-0.9,0.9s-0.9-0.4-0.9-0.9S16.9,0,17.4,0C17.8-0.1,18.3,0.4,18.3,0.9"/>
		<path class="st0" d="M16.9,0.9c0,0.5-0.4,0.9-0.9,0.9s-0.9-0.4-0.9-0.9S15.5,0,16,0C16.5-0.1,16.9,0.4,16.9,0.9"/>
		<path class="st0" d="M15.5,0.9c0,0.5-0.4,0.9-0.9,0.9s-0.9-0.4-0.9-0.9S14.1,0,14.6,0S15.5,0.4,15.5,0.9"/>
		<path class="st0" d="M14.2,2.3c0,0.5-0.4,0.9-0.9,0.9s-0.9-0.4-0.9-0.9s0.4-0.9,0.9-0.9C13.7,1.3,14.2,1.7,14.2,2.3"/>
		<path class="st0" d="M12.8,2.3c0,0.5-0.4,0.9-0.9,0.9S11,2.8,11,2.3s0.4-0.9,0.9-0.9C12.4,1.3,12.8,1.7,12.8,2.3"/>
		<path class="st0" d="M14.2,18.8c0,0.5-0.4,0.9-0.9,0.9s-0.9-0.4-0.9-0.9s0.4-0.9,0.9-0.9C13.7,17.8,14.2,18.3,14.2,18.8"/>
		<path class="st0" d="M12.8,18.8c0,0.5-0.4,0.9-0.9,0.9S11,19.3,11,18.8s0.4-0.9,0.9-0.9C12.4,17.8,12.8,18.3,12.8,18.8"/>
		<path class="st0" d="M11.4,2.3c0,0.5-0.4,0.9-0.9,0.9S9.6,2.8,9.6,2.3s0.4-0.9,0.9-0.9S11.4,1.7,11.4,2.3"/>
		<path class="st0" d="M10.1,2.3c0,0.5-0.4,0.9-0.9,0.9S8.3,2.8,8.3,2.3s0.4-0.9,0.9-0.9C9.7,1.3,10.1,1.7,10.1,2.3"/>
		<path class="st0" d="M11.4,18.8c0,0.5-0.4,0.9-0.9,0.9s-0.9-0.4-0.9-0.9s0.4-0.9,0.9-0.9S11.4,18.3,11.4,18.8"/>
		<path class="st0" d="M10.1,18.8c0,0.5-0.4,0.9-0.9,0.9s-0.9-0.4-0.9-0.9s0.4-0.9,0.9-0.9C9.7,17.8,10.1,18.3,10.1,18.8"/>
		<path class="st0" d="M23.7,14.6c0,0.5-0.4,0.9-0.9,0.9s-0.9-0.4-0.9-0.9s0.4-0.9,0.9-0.9C23.3,13.7,23.7,14.1,23.7,14.6"/>
		<path class="st0" d="M22.4,14.6c0,0.5-0.4,0.9-0.9,0.9s-0.9-0.4-0.9-0.9s0.4-0.9,0.9-0.9S22.4,14.1,22.4,14.6"/>
		<path class="st0" d="M21,14.6c0,0.5-0.4,0.9-0.9,0.9s-0.9-0.4-0.9-0.9s0.4-0.9,0.9-0.9S21,14.1,21,14.6"/>
		<path class="st0" d="M19.6,14.6c0,0.5-0.4,0.9-0.9,0.9s-0.9-0.4-0.9-0.9s0.4-0.9,0.9-0.9S19.6,14.1,19.6,14.6"/>
		<path class="st0" d="M15.5,20.1c0,0.5-0.4,0.9-0.9,0.9s-0.9-0.4-0.9-0.9s0.4-0.9,0.9-0.9S15.5,19.6,15.5,20.1"/>
		<path class="st0" d="M16.9,20.1c0,0.5-0.4,0.9-0.9,0.9s-0.9-0.4-0.9-0.9s0.4-0.9,0.9-0.9S16.9,19.6,16.9,20.1"/>
		<path class="st0" d="M21,0.9c0,0.5-0.4,0.9-0.9,0.9s-0.9-0.4-0.9-0.9S19.6,0,20.1,0S21,0.4,21,0.9"/>
		<path class="st0" d="M22.4,0.9c0,0.5-0.4,0.9-0.9,0.9s-0.9-0.4-0.9-0.9S21,0,21.5,0C22-0.1,22.4,0.4,22.4,0.9"/>
		<path class="st0" d="M23.7,0.9c0,0.5-0.4,0.9-0.9,0.9s-0.9-0.4-0.9-0.9S22.3,0,22.8,0C23.3-0.1,23.7,0.4,23.7,0.9"/>
		<path class="st0" d="M25.1,0.9c0,0.5-0.4,0.9-0.9,0.9s-0.9-0.4-0.9-0.9S23.7,0,24.2,0S25.1,0.4,25.1,0.9"/>
		<path class="st0" d="M26.5,0.9c0,0.5-0.4,0.9-0.9,0.9s-0.9-0.4-0.9-0.9S25.1,0,25.6,0C26.1-0.1,26.5,0.4,26.5,0.9"/>
		<path class="st0" d="M27.8,2.3c0,0.5-0.4,0.9-0.9,0.9S26,2.8,26,2.3s0.4-0.9,0.9-0.9S27.8,1.7,27.8,2.3"/>
		<path class="st0" d="M29.2,2.3c0,0.5-0.4,0.9-0.9,0.9s-0.9-0.4-0.9-0.9s0.4-0.9,0.9-0.9S29.2,1.7,29.2,2.3"/>
		<path class="st0" d="M25.1,20.1c0,0.5-0.4,0.9-0.9,0.9s-0.9-0.4-0.9-0.9s0.4-0.9,0.9-0.9S25.1,19.6,25.1,20.1"/>
		<path class="st0" d="M26.5,20.1c0,0.5-0.4,0.9-0.9,0.9s-0.9-0.4-0.9-0.9s0.4-0.9,0.9-0.9S26.5,19.6,26.5,20.1"/>
		<path class="st0" d="M27.8,18.8c0,0.5-0.4,0.9-0.9,0.9S26,19.3,26,18.8s0.4-0.9,0.9-0.9S27.8,18.3,27.8,18.8"/>
		<path class="st0" d="M29.2,18.8c0,0.5-0.4,0.9-0.9,0.9s-0.9-0.4-0.9-0.9s0.4-0.9,0.9-0.9S29.2,18.3,29.2,18.8"/>
		<path class="st0" d="M30.6,2.3c0,0.5-0.4,0.9-0.9,0.9s-0.9-0.4-0.9-0.9s0.4-0.9,0.9-0.9S30.6,1.7,30.6,2.3"/>
		<path class="st0" d="M30.6,18.8c0,0.5-0.4,0.9-0.9,0.9s-0.9-0.4-0.9-0.9s0.4-0.9,0.9-0.9S30.6,18.3,30.6,18.8"/>
		<path class="st0" d="M31.9,2.3c0,0.5-0.4,0.9-0.9,0.9s-0.9-0.4-0.9-0.9s0.4-0.9,0.9-0.9C31.5,1.3,31.9,1.7,31.9,2.3"/>
		<path class="st0" d="M31.9,18.8c0,0.5-0.4,0.9-0.9,0.9s-0.9-0.4-0.9-0.9s0.4-0.9,0.9-0.9C31.5,17.8,31.9,18.3,31.9,18.8"/>
		<path class="st0" d="M19.6,20.1c0,0.5-0.4,0.9-0.9,0.9s-0.9-0.4-0.9-0.9s0.4-0.9,0.9-0.9S19.6,19.6,19.6,20.1"/>
		<path class="st0" d="M18.3,20.1c0,0.5-0.4,0.9-0.9,0.9s-0.9-0.4-0.9-0.9s0.4-0.9,0.9-0.9C17.8,19.2,18.3,19.6,18.3,20.1"/>
		<path class="st0" d="M21,20.1c0,0.5-0.4,0.9-0.9,0.9s-0.9-0.4-0.9-0.9s0.4-0.9,0.9-0.9S21,19.6,21,20.1"/>
		<path class="st0" d="M22.4,20.1c0,0.5-0.4,0.9-0.9,0.9s-0.9-0.4-0.9-0.9s0.4-0.9,0.9-0.9S22.4,19.6,22.4,20.1"/>
		<path class="st0" d="M23.7,20.1c0,0.5-0.4,0.9-0.9,0.9s-0.9-0.4-0.9-0.9s0.4-0.9,0.9-0.9C23.3,19.2,23.7,19.6,23.7,20.1"/>
		<path class="st0" d="M38.3,11.9c0-0.5,0.4-0.9,0.9-0.9s0.9,0.4,0.9,0.9s-0.4,0.9-0.9,0.9C38.7,12.8,38.3,12.4,38.3,11.9"/>
		<path class="st0" d="M38.3,10.5c0-0.5,0.4-0.9,0.9-0.9s0.9,0.4,0.9,0.9s-0.4,0.9-0.9,0.9S38.3,11,38.3,10.5"/>
		<path class="st0" d="M38.3,9.1c0-0.5,0.4-0.9,0.9-0.9s0.9,0.4,0.9,0.9S39.7,10,39.2,10C38.7,10.1,38.3,9.6,38.3,9.1"/>
		<path class="st0" d="M35.6,5c0-0.5,0.4-0.9,0.9-0.9s0.9,0.4,0.9,0.9S37,5.9,36.5,5.9C36,5.9,35.6,5.5,35.6,5"/>
		<path class="st0" d="M36.9,6.4c0-0.5,0.4-0.9,0.9-0.9s0.9,0.4,0.9,0.9s-0.4,0.9-0.9,0.9S36.9,6.9,36.9,6.4"/>
		<path class="st0" d="M36.9,7.8c0-0.5,0.4-0.9,0.9-0.9s0.9,0.4,0.9,0.9s-0.4,0.9-0.9,0.9S36.9,8.3,36.9,7.8"/>
		<path class="st0" d="M34.2,3.6c0-0.5,0.4-0.9,0.9-0.9c0.5,0,0.9,0.4,0.9,0.9s-0.4,0.9-0.9,0.9C34.6,4.6,34.2,4.1,34.2,3.6"/>
		<path class="st0" d="M32.8,3.6c0-0.5,0.4-0.9,0.9-0.9s0.9,0.4,0.9,0.9s-0.4,0.9-0.9,0.9C33.2,4.6,32.8,4.1,32.8,3.6"/>
		<path class="st0" d="M31.5,3.6c0-0.5,0.4-0.9,0.9-0.9c0.5,0,0.9,0.4,0.9,0.9s-0.4,0.9-0.9,0.9C31.9,4.6,31.5,4.1,31.5,3.6"/>
		<path class="st0" d="M34.2,17.4c0-0.5,0.4-0.9,0.9-0.9s0.9,0.4,0.9,0.9s-0.4,0.9-0.9,0.9C34.6,18.3,34.2,17.9,34.2,17.4"/>
		<path class="st0" d="M35.6,16c0-0.5,0.4-0.9,0.9-0.9s0.9,0.4,0.9,0.9c0,0.5-0.4,0.9-0.9,0.9C36,17,35.6,16.5,35.6,16"/>
		<path class="st0" d="M36.9,14.6c0-0.5,0.4-0.9,0.9-0.9s0.9,0.4,0.9,0.9s-0.4,0.9-0.9,0.9C37.3,15.6,36.9,15.2,36.9,14.6"/>
		<path class="st0" d="M36.9,13.3c0-0.5,0.4-0.9,0.9-0.9s0.9,0.4,0.9,0.9s-0.4,0.9-0.9,0.9C37.3,14.2,36.9,13.8,36.9,13.3"/>
		<path class="st0" d="M32.8,17.4c0-0.5,0.4-0.9,0.9-0.9s0.9,0.4,0.9,0.9s-0.4,0.9-0.9,0.9S32.8,17.9,32.8,17.4"/>
		<path class="st0" d="M31.5,17.4c0-0.5,0.4-0.9,0.9-0.9c0.5,0,0.9,0.4,0.9,0.9s-0.4,0.9-0.9,0.9C31.9,18.3,31.5,17.9,31.5,17.4"/>
		<path class="st0" d="M14.2,9.1c0,0.5-0.4,0.9-0.9,0.9s-0.9-0.4-0.9-0.9s0.4-0.9,0.9-0.9C13.7,8.2,14.2,8.6,14.2,9.1"/>
		<path class="st0" d="M23.7,7.8c0,0.5-0.4,0.9-0.9,0.9s-0.9-0.4-0.9-0.9s0.4-0.9,0.9-0.9C23.3,6.8,23.7,7.2,23.7,7.8"/>
		<path class="st0" d="M23.7,9.1c0,0.5-0.4,0.9-0.9,0.9s-0.9-0.4-0.9-0.9s0.4-0.9,0.9-0.9C23.3,8.2,23.7,8.6,23.7,9.1"/>
		<path class="st0" d="M27.8,7.8c0,0.5-0.4,0.9-0.9,0.9S26,8.3,26,7.8s0.4-0.9,0.9-0.9S27.8,7.2,27.8,7.8"/>
		<path class="st0" d="M27.8,9.1c0,0.5-0.4,0.9-0.9,0.9S26,9.6,26,9.1s0.4-0.9,0.9-0.9S27.8,8.6,27.8,9.1"/>
		<path class="st0" d="M33.3,7.8c0,0.5-0.4,0.9-0.9,0.9s-0.9-0.4-0.9-0.9s0.4-0.9,0.9-0.9C32.9,6.8,33.3,7.2,33.3,7.8"/>
		<path class="st0" d="M27.8,13.3c0,0.5-0.4,0.9-0.9,0.9S26,13.8,26,13.3s0.4-0.9,0.9-0.9S27.8,12.8,27.8,13.3"/>
		<path class="st0" d="M33.3,11.9c0,0.5-0.4,0.9-0.9,0.9s-0.9-0.4-0.9-0.9s0.4-0.9,0.9-0.9C32.9,11,33.3,11.4,33.3,11.9"/>
		<path class="st0" d="M33.3,13.3c0,0.5-0.4,0.9-0.9,0.9s-0.9-0.4-0.9-0.9s0.4-0.9,0.9-0.9C32.9,12.3,33.3,12.8,33.3,13.3"/>
	</g>
	<g>
		<path class="st0" d="M45.3,13.9c0.2,0.2,0.3,0.4,0.3,0.7c0,0.5-0.4,0.9-0.9,0.9s-0.9-0.4-0.9-0.9c0-0.3,0.1-0.5,0.3-0.7
			c-0.2-0.2-0.3-0.4-0.3-0.7c0-0.5,0.4-0.9,0.9-0.9s0.9,0.4,0.9,0.9C45.6,13.5,45.5,13.8,45.3,13.9z M48.8,12.8
			c-0.3,0-0.5-0.1-0.7-0.3c-0.2,0.2-0.4,0.3-0.7,0.3s-0.5-0.1-0.7-0.3c-0.2,0.2-0.4,0.3-0.7,0.3c-0.5,0-0.9-0.4-0.9-0.9
			c0-0.3,0.1-0.5,0.3-0.7c-0.2-0.2-0.3-0.4-0.3-0.7s0.1-0.5,0.3-0.7c-0.2-0.2-0.3-0.4-0.3-0.7c0-0.5,0.4-0.9,0.9-0.9
			s0.9,0.4,0.9,0.9c0,0.3-0.1,0.5-0.3,0.7c0.2,0.2,0.3,0.4,0.3,0.7s-0.1,0.5-0.3,0.7c0,0,0,0,0.1,0.1c0.2-0.2,0.4-0.3,0.7-0.3
			s0.5,0.1,0.7,0.3c0,0,0,0,0.1-0.1c-0.2-0.2-0.3-0.4-0.3-0.7S48,10,48.2,9.8c-0.2-0.1-0.4-0.4-0.4-0.7c0-0.5,0.4-0.9,0.9-0.9
			s0.9,0.4,0.9,0.9c0,0.3-0.1,0.5-0.3,0.7c0.2,0.2,0.3,0.4,0.3,0.7s-0.1,0.5-0.3,0.7c0.2,0.2,0.3,0.4,0.3,0.7
			C49.7,12.4,49.3,12.8,48.8,12.8z M46.8,7.1c-0.2-0.2-0.3-0.4-0.3-0.7c0-0.5,0.4-0.9,0.9-0.9s0.9,0.4,0.9,0.9
			c0,0.3-0.1,0.5-0.3,0.7c0.2,0.2,0.3,0.4,0.3,0.7c0,0.5-0.4,0.9-0.9,0.9s-0.9-0.4-0.9-0.9C46.5,7.5,46.6,7.2,46.8,7.1z M51.1,14.6
			c0,0.5-0.4,0.9-0.9,0.9s-0.9-0.4-0.9-0.9c0-0.3,0.1-0.5,0.3-0.7c-0.2-0.2-0.3-0.4-0.3-0.7c0-0.5,0.4-0.9,0.9-0.9s0.9,0.4,0.9,0.9
			c0,0.3-0.1,0.5-0.3,0.7C51,14.1,51.1,14.3,51.1,14.6z"/>
		<path class="st0" d="M57,12.8c-0.5,0-0.9-0.4-0.9-0.9c0-0.3,0.1-0.5,0.3-0.7c0,0,0,0-0.1-0.1c-0.2,0.2-0.4,0.3-0.7,0.3
			s-0.5-0.1-0.7-0.3c0,0,0,0-0.1,0.1c0.2,0.2,0.3,0.4,0.3,0.7s-0.1,0.5-0.3,0.7c0.2,0.2,0.3,0.4,0.3,0.7S55,13.8,54.8,14
			c0.2,0.2,0.3,0.4,0.3,0.7c0,0.5-0.4,0.9-0.9,0.9s-0.9-0.4-0.9-0.9c0-0.3,0.1-0.5,0.3-0.7c-0.2-0.2-0.3-0.4-0.3-0.7
			s0.1-0.5,0.3-0.7c-0.2-0.2-0.3-0.4-0.3-0.7s0.1-0.5,0.3-0.7c-0.2-0.2-0.3-0.4-0.3-0.7s0.1-0.5,0.3-0.7c-0.2-0.2-0.3-0.4-0.3-0.7
			s0.1-0.5,0.3-0.7c-0.2-0.2-0.3-0.4-0.3-0.7c0-0.3,0.1-0.5,0.3-0.7c-0.2-0.2-0.3-0.4-0.3-0.7c0-0.5,0.4-0.9,0.9-0.9
			c0.3,0,0.5,0.1,0.7,0.3c0.2-0.2,0.4-0.3,0.7-0.3s0.5,0.1,0.7,0.3c0.2-0.2,0.4-0.3,0.7-0.3s0.5,0.1,0.7,0.3
			c0.2-0.2,0.4-0.3,0.7-0.3c0.5,0,0.9,0.4,0.9,0.9s-0.4,0.9-0.9,0.9c-0.3,0-0.5-0.1-0.7-0.3c-0.2,0.2-0.4,0.3-0.7,0.3
			s-0.5-0.1-0.7-0.3c-0.2,0.2-0.4,0.3-0.7,0.3s-0.5-0.1-0.7-0.3c0,0,0,0-0.1,0.1c0.2,0.2,0.3,0.4,0.3,0.7S55,8.2,54.8,8.4
			c0.2,0.2,0.3,0.4,0.3,0.7S55,9.6,54.8,9.8c0,0,0,0,0.1,0.1c0.2-0.2,0.4-0.3,0.7-0.3s0.5,0.1,0.7,0.3c0.2-0.2,0.4-0.3,0.7-0.3
			s0.5,0.1,0.7,0.3c0.2-0.2,0.4-0.3,0.7-0.3c0.5,0,0.9,0.4,0.9,0.9s-0.4,0.9-0.9,0.9c-0.3,0-0.5-0.1-0.7-0.3c0,0,0,0-0.1,0.1
			c0.2,0.2,0.3,0.4,0.3,0.7C57.9,12.4,57.5,12.8,57,12.8z M58.4,14.2c-0.5,0-0.9-0.4-0.9-0.9s0.4-0.9,0.9-0.9s0.9,0.4,0.9,0.9
			C59.3,13.8,58.9,14.2,58.4,14.2z M60.7,9.1c0,0.5-0.4,0.9-0.9,0.9s-0.9-0.4-0.9-0.9c0-0.3,0.1-0.5,0.3-0.7C59,8.2,58.9,8,58.9,7.7
			c0-0.5,0.4-0.9,0.9-0.9s0.9,0.4,0.9,0.9c0,0.3-0.1,0.5-0.3,0.7C60.5,8.6,60.7,8.9,60.7,9.1z M60.7,14.6c0,0.5-0.4,0.9-0.9,0.9
			s-0.9-0.4-0.9-0.9s0.4-0.9,0.9-0.9S60.7,14.1,60.7,14.6z"/>
		<path class="st0" d="M63.8,14.2c-0.5,0-0.9-0.4-0.9-0.9c0-0.3,0.1-0.5,0.3-0.7c-0.2-0.2-0.3-0.4-0.3-0.7s0.1-0.5,0.3-0.7
			c-0.2-0.2-0.3-0.4-0.3-0.7S63,10,63.2,9.8c-0.2-0.1-0.3-0.4-0.3-0.7s0.1-0.5,0.3-0.7C63,8.2,62.9,8,62.9,7.7
			c0-0.5,0.4-0.9,0.9-0.9s0.9,0.4,0.9,0.9c0,0.3-0.1,0.5-0.3,0.7c0.2,0.2,0.3,0.4,0.3,0.7s-0.1,0.5-0.3,0.7c0.2,0.2,0.3,0.4,0.3,0.7
			s-0.1,0.5-0.3,0.7c0.2,0.2,0.3,0.4,0.3,0.7s-0.1,0.5-0.3,0.7c0.2,0.2,0.3,0.4,0.3,0.7C64.8,13.8,64.3,14.2,63.8,14.2z M64.3,6.4
			c0-0.5,0.4-0.9,0.9-0.9c0.3,0,0.5,0.1,0.7,0.3c0.2-0.2,0.4-0.3,0.7-0.3c0.3,0,0.5,0.1,0.7,0.3c0.2-0.2,0.4-0.3,0.7-0.3
			c0.5,0,0.9,0.4,0.9,0.9S68.5,7.3,68,7.3c-0.3,0-0.5-0.1-0.7-0.3c-0.2,0.2-0.4,0.3-0.7,0.3c-0.3,0-0.5-0.1-0.7-0.3
			c-0.2,0.2-0.4,0.3-0.7,0.3C64.7,7.3,64.3,6.9,64.3,6.4z M68.9,14.6c0,0.5-0.4,0.9-0.9,0.9c-0.3,0-0.5-0.1-0.7-0.3
			c-0.2,0.2-0.4,0.3-0.7,0.3c-0.3,0-0.5-0.1-0.7-0.3c-0.2,0.2-0.4,0.3-0.7,0.3c-0.5,0-0.9-0.4-0.9-0.9s0.4-0.9,0.9-0.9
			c0.3,0,0.5,0.1,0.7,0.3c0.2-0.2,0.4-0.3,0.7-0.3c0.3,0,0.5,0.1,0.7,0.3c0.2-0.2,0.4-0.3,0.7-0.3C68.5,13.7,68.9,14.1,68.9,14.6z
			 M69.3,6.8c0.5,0,0.9,0.4,0.9,0.9s-0.4,1-0.9,1s-0.9-0.4-0.9-0.9S68.8,6.8,69.3,6.8z M70.2,13.2c0,0.5-0.4,0.9-0.9,0.9
			s-0.9-0.4-0.9-0.9s0.4-0.9,0.9-0.9C69.8,12.3,70.2,12.7,70.2,13.2z"/>
		<path class="st0" d="M79.5,8.4c0.2,0.2,0.3,0.4,0.3,0.7s-0.1,0.5-0.3,0.7c0.2,0.2,0.3,0.4,0.3,0.7s-0.1,0.5-0.3,0.7
			c0.2,0.2,0.3,0.4,0.3,0.7s-0.1,0.5-0.3,0.7c0.2,0.2,0.3,0.4,0.3,0.7s-0.1,0.5-0.3,0.7c0.2,0.2,0.3,0.4,0.3,0.7
			c0,0.5-0.4,0.9-0.9,0.9S78,15.2,78,14.7c0-0.3,0.1-0.5,0.3-0.7c-0.2-0.2-0.3-0.4-0.3-0.7s0.1-0.5,0.3-0.7
			c-0.2-0.2-0.3-0.4-0.3-0.7s0.1-0.5,0.3-0.7c0,0,0,0-0.1-0.1c-0.2,0.2-0.4,0.3-0.7,0.3c-0.3,0-0.5-0.1-0.7-0.3
			c-0.2,0.2-0.4,0.3-0.7,0.3s-0.5-0.1-0.7-0.3c-0.2,0.2-0.4,0.3-0.7,0.3c-0.3,0-0.5-0.1-0.7-0.3c0,0,0,0-0.1,0.1
			c0.2,0.2,0.3,0.4,0.3,0.7s-0.1,0.5-0.3,0.7c0.2,0.2,0.3,0.4,0.3,0.7s-0.1,0.5-0.3,0.7c0.2,0.2,0.3,0.4,0.3,0.7
			c0,0.5-0.4,0.9-0.9,0.9s-0.9-0.4-0.9-0.9c0-0.3,0.1-0.5,0.3-0.7c-0.2-0.2-0.3-0.4-0.3-0.7s0.1-0.5,0.3-0.7
			c-0.2-0.2-0.3-0.4-0.3-0.7s0.1-0.5,0.3-0.7c-0.2-0.2-0.3-0.4-0.3-0.7s0.1-0.5,0.3-0.7c-0.2-0.2-0.3-0.4-0.3-0.7s0.1-0.5,0.3-0.7
			c-0.2-0.2-0.3-0.4-0.3-0.7c0-0.3,0.1-0.5,0.3-0.7c-0.2-0.2-0.3-0.4-0.3-0.7c0-0.5,0.4-0.9,0.9-0.9s0.9,0.4,0.9,0.9
			c0,0.3-0.1,0.5-0.3,0.7c0.2,0.2,0.3,0.4,0.3,0.7s-0.1,0.5-0.3,0.7c0.2,0.2,0.3,0.4,0.3,0.7s-0.1,0.5-0.3,0.7c0,0,0,0,0.1,0.1
			c0.2-0.2,0.4-0.3,0.7-0.3c0.3,0,0.5,0.1,0.7,0.3c0.2-0.2,0.4-0.3,0.7-0.3s0.5,0.1,0.7,0.3c0.2-0.2,0.4-0.3,0.7-0.3
			c0.3,0,0.5,0.1,0.7,0.3c0,0,0,0,0.1-0.1C78.1,9.6,78,9.4,78,9.1s0.1-0.5,0.3-0.7C78.1,8.2,78,8,78,7.7c0-0.3,0.1-0.5,0.3-0.7
			C78.1,6.8,78,6.6,78,6.3c0-0.5,0.4-0.9,0.9-0.9s0.9,0.4,0.9,0.9c0,0.3-0.1,0.5-0.3,0.7c0.2,0.2,0.3,0.4,0.3,0.7S79.7,8.3,79.5,8.4
			z"/>
		<path class="st0" d="M84.3,8.4c0.2,0.2,0.3,0.4,0.3,0.7s-0.1,0.5-0.3,0.7c0.2,0.2,0.3,0.4,0.3,0.7s-0.1,0.5-0.3,0.7
			c0.2,0.2,0.3,0.4,0.3,0.7s-0.1,0.5-0.3,0.7c0.2,0.2,0.3,0.4,0.3,0.7s-0.1,0.5-0.3,0.7c0.2,0.2,0.3,0.4,0.3,0.7
			c0,0.5-0.4,0.9-0.9,0.9s-0.9-0.4-0.9-0.9c0-0.3,0.1-0.5,0.3-0.7c-0.2-0.2-0.3-0.4-0.3-0.7s0.1-0.5,0.3-0.7
			c-0.2-0.2-0.3-0.4-0.3-0.7s0.1-0.5,0.3-0.7c-0.2-0.2-0.3-0.4-0.3-0.7s0.1-0.5,0.3-0.7c-0.2-0.2-0.3-0.4-0.3-0.7s0.1-0.5,0.3-0.7
			c-0.2-0.2-0.3-0.4-0.3-0.7c0-0.3,0.1-0.5,0.3-0.7c-0.2-0.2-0.3-0.4-0.3-0.7c0-0.5,0.4-0.9,0.9-0.9s0.9,0.4,0.9,0.9
			c0,0.3-0.1,0.5-0.3,0.7c0.2,0.2,0.3,0.4,0.3,0.7C84.6,8,84.5,8.3,84.3,8.4z"/>
		<path class="st0" d="M94.2,6.4c0,0.5-0.4,0.9-0.9,0.9c-0.3,0-0.5-0.1-0.7-0.3c-0.2,0.2-0.4,0.3-0.7,0.3S91.4,7.2,91.2,7
			c0,0,0,0-0.1,0.1c0.2,0.2,0.3,0.4,0.3,0.7s-0.1,0.5-0.3,0.7c0.2,0.2,0.3,0.4,0.3,0.7s-0.1,0.5-0.3,0.7c0.2,0.2,0.3,0.4,0.3,0.7
			s-0.1,0.5-0.3,0.7c0.2,0.2,0.3,0.4,0.3,0.7s-0.1,0.5-0.3,0.7c0.2,0.2,0.3,0.4,0.3,0.7s-0.1,0.5-0.3,0.7c0.2,0.2,0.3,0.4,0.3,0.7
			c0,0.5-0.4,0.9-0.9,0.9s-0.9-0.4-0.9-0.9c0-0.3,0.1-0.5,0.3-0.7c-0.2-0.2-0.3-0.4-0.3-0.7s0.1-0.5,0.3-0.7
			c-0.2-0.2-0.3-0.4-0.3-0.7s0.1-0.5,0.3-0.7c-0.2-0.2-0.3-0.4-0.3-0.7s0.1-0.5,0.3-0.7c-0.2-0.2-0.3-0.4-0.3-0.7s0.1-0.5,0.3-0.7
			c-0.2-0.2-0.3-0.4-0.3-0.7c0-0.3,0.1-0.5,0.3-0.7c0,0,0,0-0.1-0.1c-0.2,0.2-0.4,0.3-0.7,0.3c-0.3,0-0.5-0.1-0.7-0.3
			c-0.2,0.2-0.4,0.3-0.7,0.3c-0.5,0-0.9-0.4-0.9-0.9s0.4-0.9,0.9-0.9c0.3,0,0.5,0.1,0.7,0.3c0.2-0.2,0.4-0.3,0.7-0.3
			c0.3,0,0.5,0.1,0.7,0.3c0.2-0.2,0.4-0.3,0.7-0.3c0.3,0,0.5,0.1,0.7,0.3c0.2-0.2,0.4-0.3,0.7-0.3s0.5,0.1,0.7,0.3
			c0.2-0.2,0.4-0.3,0.7-0.3C93.8,5.5,94.2,5.9,94.2,6.4z"/>
		<path class="st0" d="M98,11.2c0.2,0.2,0.3,0.4,0.3,0.7s-0.1,0.5-0.3,0.7c0.2,0.2,0.3,0.4,0.3,0.7S98.2,13.8,98,14c0,0,0,0,0.1,0.1
			c0.2-0.2,0.4-0.3,0.7-0.3c0.3,0,0.5,0.1,0.7,0.3c0.2-0.2,0.4-0.3,0.7-0.3s0.5,0.1,0.7,0.3c0.2-0.2,0.4-0.3,0.7-0.3
			c0.5,0,0.9,0.4,0.9,0.9s-0.4,0.9-0.9,0.9c-0.3,0-0.5-0.1-0.7-0.3c-0.2,0.2-0.4,0.3-0.7,0.3s-0.5-0.1-0.7-0.3
			c-0.2,0.2-0.4,0.3-0.7,0.3c-0.3,0-0.5-0.1-0.7-0.3c-0.2,0.2-0.4,0.3-0.7,0.3c-0.5,0-0.9-0.4-0.9-0.9c0-0.3,0.1-0.5,0.3-0.7
			c-0.2-0.2-0.3-0.4-0.3-0.7s0.1-0.5,0.3-0.7c-0.2-0.2-0.3-0.4-0.3-0.7s0.1-0.5,0.3-0.7c-0.2-0.2-0.3-0.4-0.3-0.7s0.1-0.5,0.3-0.7
			c-0.2-0.2-0.3-0.4-0.3-0.7s0.1-0.5,0.3-0.7c-0.2-0.2-0.3-0.4-0.3-0.7c0-0.3,0.1-0.5,0.3-0.7c-0.2-0.2-0.3-0.4-0.3-0.7
			c0-0.5,0.4-0.9,0.9-0.9c0.3,0,0.5,0.1,0.7,0.3c0.2-0.2,0.4-0.3,0.7-0.3c0.3,0,0.5,0.1,0.7,0.3c0.2-0.2,0.4-0.3,0.7-0.3
			s0.5,0.1,0.7,0.3c0.2-0.2,0.4-0.3,0.7-0.3c0.5,0,0.9,0.4,0.9,0.9s-0.4,0.9-0.9,0.9c-0.3,0-0.5-0.1-0.7-0.3
			c-0.2,0.2-0.4,0.3-0.7,0.3s-0.5-0.1-0.7-0.3c-0.2,0.2-0.4,0.3-0.7,0.3c-0.3,0-0.5-0.1-0.7-0.3c0,0,0,0-0.1,0.1
			c0.2,0.2,0.3,0.4,0.3,0.7S98.2,8.2,98,8.4c0.2,0.2,0.3,0.4,0.3,0.7S98.2,9.6,98,9.8c0,0,0,0,0.1,0.1c0.2-0.2,0.4-0.3,0.7-0.3
			c0.3,0,0.5,0.1,0.7,0.3c0.2-0.2,0.4-0.3,0.7-0.3s0.5,0.1,0.7,0.3c0.2-0.2,0.4-0.3,0.7-0.3c0.5,0,0.9,0.4,0.9,0.9s-0.4,0.9-0.9,0.9
			c-0.3,0-0.5-0.1-0.7-0.3c-0.2,0.2-0.4,0.3-0.7,0.3s-0.5-0.1-0.7-0.3c-0.2,0.2-0.4,0.3-0.7,0.3C98.4,11.4,98.2,11.3,98,11.2
			L98,11.2z"/>
		<path class="st0" d="M106.2,14.2c-0.5,0-0.9-0.4-0.9-0.9c0-0.3,0.1-0.5,0.3-0.7c-0.2-0.2-0.3-0.4-0.3-0.7s0.1-0.5,0.3-0.7
			c-0.2-0.2-0.3-0.4-0.3-0.7s0.1-0.5,0.3-0.7c-0.2-0.2-0.3-0.4-0.3-0.7s0.1-0.5,0.3-0.7c-0.2-0.2-0.3-0.4-0.3-0.7
			c0-0.5,0.4-0.9,0.9-0.9s0.9,0.4,0.9,0.9c0,0.3-0.1,0.5-0.3,0.7c0.2,0.2,0.3,0.4,0.3,0.7s-0.1,0.5-0.3,0.7c0.2,0.2,0.3,0.4,0.3,0.7
			s-0.1,0.5-0.3,0.7c0.2,0.2,0.3,0.4,0.3,0.7s-0.1,0.5-0.3,0.7c0.2,0.2,0.3,0.4,0.3,0.7C107.2,13.8,106.8,14.2,106.2,14.2z
			 M106.7,6.4c0-0.5,0.4-0.9,0.9-0.9c0.3,0,0.5,0.1,0.7,0.3c0.2-0.2,0.4-0.3,0.7-0.3c0.3,0,0.5,0.1,0.7,0.3c0.2-0.2,0.4-0.3,0.7-0.3
			c0.5,0,0.9,0.4,0.9,0.9s-0.4,0.9-0.9,0.9c-0.3,0-0.5-0.1-0.7-0.3c-0.2,0.2-0.4,0.3-0.7,0.3c-0.3,0-0.5-0.1-0.7-0.3
			c-0.2,0.2-0.4,0.3-0.7,0.3C107.1,7.3,106.7,6.9,106.7,6.4z M111.3,14.6c0,0.5-0.4,0.9-0.9,0.9c-0.3,0-0.5-0.1-0.7-0.3
			c-0.2,0.2-0.4,0.3-0.7,0.3c-0.3,0-0.5-0.1-0.7-0.3c-0.2,0.2-0.4,0.3-0.7,0.3c-0.5,0-0.9-0.4-0.9-0.9s0.4-0.9,0.9-0.9
			c0.3,0,0.5,0.1,0.7,0.3c0.2-0.2,0.4-0.3,0.7-0.3c0.3,0,0.5,0.1,0.7,0.3c0.2-0.2,0.4-0.3,0.7-0.3C110.9,13.7,111.3,14.1,111.3,14.6
			z M111.7,6.8c0.5,0,0.9,0.4,0.9,0.9s-0.4,1-0.9,1s-0.9-0.4-0.9-0.9S111.2,6.8,111.7,6.8z M112.6,13.2c0,0.5-0.4,0.9-0.9,0.9
			s-0.9-0.4-0.9-0.9s0.4-0.9,0.9-0.9S112.6,12.7,112.6,13.2z"/>
		<path class="st0" d="M121.5,6.4c0,0.5-0.4,0.9-0.9,0.9c-0.3,0-0.5-0.1-0.7-0.3c-0.2,0.2-0.4,0.3-0.7,0.3c-0.3,0-0.5-0.1-0.7-0.3
			c0,0,0,0-0.1,0.1c0.2,0.2,0.3,0.4,0.3,0.7s-0.1,0.5-0.3,0.7c0.2,0.2,0.3,0.4,0.3,0.7s-0.1,0.5-0.3,0.7c0.2,0.2,0.3,0.4,0.3,0.7
			s-0.1,0.5-0.3,0.7c0.2,0.2,0.3,0.4,0.3,0.7s-0.1,0.5-0.3,0.7c0.2,0.2,0.3,0.4,0.3,0.7s-0.1,0.5-0.3,0.7c0.2,0.2,0.3,0.4,0.3,0.7
			c0,0.5-0.4,0.9-0.9,0.9s-0.9-0.4-0.9-0.9c0-0.3,0.1-0.5,0.3-0.7c-0.2-0.2-0.3-0.4-0.3-0.7s0.1-0.5,0.3-0.7
			c-0.2-0.2-0.3-0.4-0.3-0.7s0.1-0.5,0.3-0.7c-0.2-0.2-0.3-0.4-0.3-0.7s0.1-0.5,0.3-0.7c-0.2-0.2-0.3-0.4-0.3-0.7s0.1-0.5,0.3-0.7
			c-0.2-0.2-0.3-0.4-0.3-0.7c0-0.3,0.1-0.5,0.3-0.7c0,0,0,0-0.1-0.1c-0.2,0.2-0.4,0.3-0.7,0.3c-0.3,0-0.5-0.1-0.7-0.3
			c-0.2,0.2-0.4,0.3-0.7,0.3c-0.5,0-0.9-0.4-0.9-0.9s0.4-0.9,0.9-0.9c0.3,0,0.5,0.1,0.7,0.3c0.2-0.2,0.4-0.3,0.7-0.3
			c0.3,0,0.5,0.1,0.7,0.3c0.2-0.2,0.4-0.3,0.7-0.3s0.5,0.1,0.7,0.3c0.2-0.2,0.4-0.3,0.7-0.3c0.3,0,0.5,0.1,0.7,0.3
			c0.2-0.2,0.4-0.3,0.7-0.3C121.1,5.5,121.5,5.9,121.5,6.4z"/>
		<path class="st0" d="M125.3,11.2c0.2,0.2,0.3,0.4,0.3,0.7s-0.1,0.5-0.3,0.7c0.2,0.2,0.3,0.4,0.3,0.7s-0.1,0.5-0.3,0.7
			c0,0,0,0,0.1,0.1c0.2-0.2,0.4-0.3,0.7-0.3c0.3,0,0.5,0.1,0.7,0.3c0.2-0.2,0.4-0.3,0.7-0.3s0.5,0.1,0.7,0.3
			c0.2-0.2,0.4-0.3,0.7-0.3c0.5,0,0.9,0.4,0.9,0.9s-0.4,0.9-0.9,0.9c-0.3,0-0.5-0.1-0.7-0.3c-0.2,0.2-0.4,0.3-0.7,0.3
			s-0.5-0.1-0.7-0.3c-0.2,0.2-0.4,0.3-0.7,0.3c-0.3,0-0.5-0.1-0.7-0.3c-0.2,0.2-0.4,0.3-0.7,0.3c-0.5,0-0.9-0.4-0.9-0.9
			c0-0.3,0.1-0.5,0.3-0.7c-0.2-0.2-0.3-0.4-0.3-0.7s0.1-0.5,0.3-0.7c-0.2-0.2-0.3-0.4-0.3-0.7s0.1-0.5,0.3-0.7
			c-0.2-0.2-0.3-0.4-0.3-0.7s0.1-0.5,0.3-0.7c-0.2-0.2-0.3-0.4-0.3-0.7s0.1-0.5,0.3-0.7c-0.2-0.2-0.3-0.4-0.3-0.7
			c0-0.3,0.1-0.5,0.3-0.7c-0.2-0.2-0.3-0.4-0.3-0.7c0-0.5,0.4-0.9,0.9-0.9c0.3,0,0.5,0.1,0.7,0.3c0.2-0.2,0.4-0.3,0.7-0.3
			c0.3,0,0.5,0.1,0.7,0.3c0.2-0.2,0.4-0.3,0.7-0.3s0.5,0.1,0.7,0.3c0.2-0.2,0.4-0.3,0.7-0.3c0.5,0,0.9,0.4,0.9,0.9s-0.4,0.9-0.9,0.9
			c-0.3,0-0.5-0.1-0.7-0.3c-0.2,0.2-0.4,0.3-0.7,0.3s-0.5-0.1-0.7-0.3c-0.2,0.2-0.4,0.3-0.7,0.3c-0.3,0-0.5-0.1-0.7-0.3
			c0,0,0,0-0.1,0.1c0.2,0.2,0.3,0.4,0.3,0.7s-0.1,0.5-0.3,0.7c0.2,0.2,0.3,0.4,0.3,0.7s-0.1,0.5-0.3,0.7c0,0,0,0,0.1,0.1
			c0.2-0.2,0.4-0.3,0.7-0.3c0.3,0,0.5,0.1,0.7,0.3c0.2-0.2,0.4-0.3,0.7-0.3s0.5,0.1,0.7,0.3c0.2-0.2,0.4-0.3,0.7-0.3
			c0.5,0,0.9,0.4,0.9,0.9s-0.4,0.9-0.9,0.9c-0.3,0-0.5-0.1-0.7-0.3c-0.2,0.2-0.4,0.3-0.7,0.3s-0.5-0.1-0.7-0.3
			c-0.2,0.2-0.4,0.3-0.7,0.3C125.8,11.4,125.6,11.3,125.3,11.2C125.4,11.2,125.4,11.2,125.3,11.2z"/>
		<path class="st0" d="M133,8.4c-0.2-0.2-0.3-0.4-0.3-0.7c0-0.5,0.4-0.9,0.9-0.9s0.9,0.4,0.9,0.9c0,0.3-0.1,0.5-0.3,0.7
			c0.2,0.2,0.3,0.4,0.3,0.7c0,0.5-0.4,0.9-0.9,0.9s-0.9-0.4-0.9-0.9C132.7,8.9,132.8,8.6,133,8.4z M133.6,14.2
			c-0.5,0-0.9-0.4-0.9-0.9s0.4-0.9,0.9-0.9s0.9,0.4,0.9,0.9S134.1,14.2,133.6,14.2z M134,6.4c0-0.5,0.4-0.9,0.9-0.9
			c0.3,0,0.5,0.1,0.7,0.3c0.2-0.2,0.4-0.3,0.7-0.3s0.5,0.1,0.7,0.3c0.2-0.2,0.4-0.3,0.7-0.3c0.5,0,0.9,0.4,0.9,0.9s-0.4,0.9-0.9,0.9
			c-0.3,0-0.5-0.1-0.7-0.3c-0.2,0.2-0.4,0.3-0.7,0.3s-0.5-0.1-0.7-0.3c-0.2,0.2-0.4,0.3-0.7,0.3C134.4,7.3,134,6.9,134,6.4z
			 M138.6,10.5c0,0.5-0.4,0.9-0.9,0.9c-0.3,0-0.5-0.1-0.7-0.3c-0.2,0.2-0.4,0.3-0.7,0.3s-0.5-0.1-0.7-0.3c-0.2,0.2-0.4,0.3-0.7,0.3
			c-0.5,0-0.9-0.4-0.9-0.9s0.4-0.9,0.9-0.9c0.3,0,0.5,0.1,0.7,0.3c0.2-0.2,0.4-0.3,0.7-0.3s0.5,0.1,0.7,0.3c0.2-0.2,0.4-0.3,0.7-0.3
			C138.2,9.6,138.6,10,138.6,10.5z M138.6,14.6c0,0.5-0.4,0.9-0.9,0.9c-0.3,0-0.5-0.1-0.7-0.3c-0.2,0.2-0.4,0.3-0.7,0.3
			s-0.5-0.1-0.7-0.3c-0.2,0.2-0.4,0.3-0.7,0.3c-0.5,0-0.9-0.4-0.9-0.9s0.4-0.9,0.9-0.9c0.3,0,0.5,0.1,0.7,0.3
			c0.2-0.2,0.4-0.3,0.7-0.3s0.5,0.1,0.7,0.3c0.2-0.2,0.4-0.3,0.7-0.3C138.2,13.7,138.6,14.1,138.6,14.6z M139.1,6.8
			c0.5,0,0.9,0.4,0.9,0.9s-0.4,1-0.9,1s-0.9-0.4-0.9-0.9S138.5,6.8,139.1,6.8z M139.7,12.6c0.2,0.2,0.3,0.4,0.3,0.7
			c0,0.5-0.4,0.9-0.9,0.9s-0.9-0.4-0.9-0.9c0-0.3,0.1-0.5,0.3-0.7c-0.2-0.2-0.3-0.4-0.3-0.7c0-0.5,0.4-0.9,0.9-0.9s0.9,0.4,0.9,0.9
			C140,12.1,139.9,12.4,139.7,12.6z"/>
	</g>
</g>
</svg>
