<svg id="Calque_1" data-name="Calque 1" xmlns="http://www.w3.org/2000/svg" viewBox="0 0 106.94 15.31"><defs><style>.cls-1{fill:#1d1d1b;}</style></defs><title>Plan de travail 4</title><path class="cls-1" d="M32.72,10.09a.65.65,0,0,1,.22.5.68.68,0,0,1-1.36,0,.65.65,0,0,1,.22-.5.65.65,0,0,1-.22-.5.68.68,0,1,1,1.36,0A.65.65,0,0,1,32.72,10.09Zm2.54-.82a.65.65,0,0,1-.5-.22.68.68,0,0,1-1,0,.65.65,0,0,1-.5.22.67.67,0,0,1-.68-.68.65.65,0,0,1,.22-.5.68.68,0,0,1,0-1,.65.65,0,0,1-.22-.5.68.68,0,1,1,1.36,0,.65.65,0,0,1-.22.5.68.68,0,0,1,0,1,.08.08,0,0,1,0,0,.68.68,0,0,1,1,0l0,0a.68.68,0,0,1,0-1,.65.65,0,0,1-.22-.5.68.68,0,1,1,1.36,0,.65.65,0,0,1-.22.5.68.68,0,0,1,0,1,.65.65,0,0,1,.22.5A.67.67,0,0,1,35.26,9.27ZM33.8,5.09a.65.65,0,0,1-.22-.5.68.68,0,1,1,1.36,0,.65.65,0,0,1-.22.5.65.65,0,0,1,.22.5.68.68,0,1,1-1.36,0A.65.65,0,0,1,33.8,5.09Zm3.13,5.5a.68.68,0,1,1-1.14-.5.68.68,0,1,1,1.14-.5.65.65,0,0,1-.22.5A.65.65,0,0,1,36.93,10.59Z"/><path class="cls-1" d="M41.76,9.27a.67.67,0,0,1-.68-.68.65.65,0,0,1,.22-.5l0,0a.68.68,0,0,1-1,0,.08.08,0,0,1,0,0,.68.68,0,0,1,0,1,.68.68,0,0,1,0,1,.65.65,0,0,1,.22.5.68.68,0,1,1-1.36,0,.65.65,0,0,1,.22-.5.68.68,0,0,1,0-1,.68.68,0,0,1,0-1,.68.68,0,0,1,0-1,.68.68,0,0,1,0-1,.68.68,0,0,1,0-1,.65.65,0,0,1-.22-.5.67.67,0,0,1,.68-.68.65.65,0,0,1,.5.22.68.68,0,0,1,1,0,.68.68,0,0,1,1,0,.65.65,0,0,1,.5-.22.68.68,0,0,1,0,1.36.65.65,0,0,1-.5-.22.68.68,0,0,1-1,0,.68.68,0,0,1-1,0,.08.08,0,0,1,0,0,.68.68,0,0,1,0,1,.68.68,0,0,1,0,1,.08.08,0,0,1,0,0,.68.68,0,0,1,1,0,.68.68,0,0,1,1,0,.65.65,0,0,1,.5-.22.68.68,0,0,1,0,1.36.65.65,0,0,1-.5-.22.08.08,0,0,1,0,0,.65.65,0,0,1,.22.5A.67.67,0,0,1,41.76,9.27Zm1,1a.68.68,0,1,1,.68-.68A.67.67,0,0,1,42.76,10.27Zm1.67-3.68a.68.68,0,1,1-1.14-.5.68.68,0,1,1,1.14-.5.65.65,0,0,1-.22.5A.65.65,0,0,1,44.43,6.59Zm0,4a.68.68,0,1,1-.68-.68A.67.67,0,0,1,44.43,10.59Z"/><path class="cls-1" d="M47.26,10.27a.67.67,0,0,1-.68-.68.65.65,0,0,1,.22-.5.68.68,0,0,1,0-1,.68.68,0,0,1,0-1,.68.68,0,0,1,0-1,.65.65,0,0,1-.22-.5.68.68,0,1,1,1.36,0,.65.65,0,0,1-.22.5.68.68,0,0,1,0,1,.68.68,0,0,1,0,1,.68.68,0,0,1,0,1,.65.65,0,0,1,.22.5A.67.67,0,0,1,47.26,10.27Zm.32-5.68a.67.67,0,0,1,.68-.68.65.65,0,0,1,.5.22.68.68,0,0,1,1,0,.65.65,0,0,1,.5-.22.68.68,0,0,1,0,1.36.65.65,0,0,1-.5-.22.68.68,0,0,1-1,0,.65.65,0,0,1-.5.22A.67.67,0,0,1,47.58,4.59Zm3.36,6a.67.67,0,0,1-.68.68.65.65,0,0,1-.5-.22.68.68,0,0,1-1,0,.65.65,0,0,1-.5.22.68.68,0,0,1,0-1.36.65.65,0,0,1,.5.22.68.68,0,0,1,1,0,.65.65,0,0,1,.5-.22A.67.67,0,0,1,50.94,10.59Zm.32-5.68a.68.68,0,1,1-.68.68A.67.67,0,0,1,51.26,4.91Zm.68,4.68a.68.68,0,1,1-.68-.68A.67.67,0,0,1,51.94,9.59Z"/><path class="cls-1" d="M59.21,6.09a.66.66,0,0,1,0,1,.66.66,0,0,1,0,1,.66.66,0,0,1,0,1,.66.66,0,0,1,0,1,.63.63,0,0,1,.23.5.68.68,0,0,1-1.36,0,.65.65,0,0,1,.22-.5.68.68,0,0,1,0-1,.68.68,0,0,1,0-1l0,0a.68.68,0,0,1-1,0,.68.68,0,0,1-1,0,.68.68,0,0,1-1,0,.08.08,0,0,1,0,0,.68.68,0,0,1,0,1,.68.68,0,0,1,0,1,.65.65,0,0,1,.22.5.68.68,0,0,1-1.36,0,.65.65,0,0,1,.22-.5.68.68,0,0,1,0-1,.68.68,0,0,1,0-1,.68.68,0,0,1,0-1,.68.68,0,0,1,0-1,.68.68,0,0,1,0-1,.65.65,0,0,1-.22-.5.68.68,0,1,1,1.36,0,.65.65,0,0,1-.22.5.68.68,0,0,1,0,1,.68.68,0,0,1,0,1,.08.08,0,0,1,0,0,.68.68,0,0,1,1,0,.68.68,0,0,1,1,0,.68.68,0,0,1,1,0l0,0a.68.68,0,0,1,0-1,.68.68,0,0,1,0-1,.65.65,0,0,1-.22-.5.68.68,0,1,1,1.36,0,.63.63,0,0,1-.23.5.66.66,0,0,1,0,1Z"/><path class="cls-1" d="M63.22,6.09a.68.68,0,0,1,0,1,.68.68,0,0,1,0,1,.68.68,0,0,1,0,1,.68.68,0,0,1,0,1,.65.65,0,0,1,.22.5.68.68,0,0,1-1.36,0,.65.65,0,0,1,.22-.5.68.68,0,0,1,0-1,.68.68,0,0,1,0-1,.68.68,0,0,1,0-1,.68.68,0,0,1,0-1,.68.68,0,0,1,0-1,.65.65,0,0,1-.22-.5.68.68,0,1,1,1.36,0,.65.65,0,0,1-.22.5.68.68,0,0,1,0,1Z"/><path class="cls-1" d="M70.94,4.59a.67.67,0,0,1-.68.68.65.65,0,0,1-.5-.22.68.68,0,0,1-1,0l0,0a.68.68,0,0,1,0,1,.68.68,0,0,1,0,1,.68.68,0,0,1,0,1,.68.68,0,0,1,0,1,.68.68,0,0,1,0,1,.65.65,0,0,1,.22.5.68.68,0,0,1-1.36,0,.65.65,0,0,1,.22-.5.68.68,0,0,1,0-1,.68.68,0,0,1,0-1,.68.68,0,0,1,0-1,.68.68,0,0,1,0-1,.68.68,0,0,1,0-1,.08.08,0,0,1,0,0,.68.68,0,0,1-1,0,.65.65,0,0,1-.5.22.68.68,0,1,1,0-1.36.65.65,0,0,1,.5.22.68.68,0,0,1,1,0,.68.68,0,0,1,1,0,.68.68,0,0,1,1,0,.65.65,0,0,1,.5-.22A.67.67,0,0,1,70.94,4.59Z"/><path class="cls-1" d="M74.22,8.09a.68.68,0,0,1,0,1,.68.68,0,0,1,0,1l0,0a.68.68,0,0,1,1,0,.68.68,0,0,1,1,0,.65.65,0,0,1,.5-.22.68.68,0,1,1,0,1.36.65.65,0,0,1-.5-.22.68.68,0,0,1-1,0,.68.68,0,0,1-1,0,.65.65,0,0,1-.5.22.67.67,0,0,1-.68-.68.65.65,0,0,1,.22-.5.68.68,0,0,1,0-1,.68.68,0,0,1,0-1,.68.68,0,0,1,0-1,.68.68,0,0,1,0-1,.68.68,0,0,1,0-1,.65.65,0,0,1-.22-.5.67.67,0,0,1,.68-.68.65.65,0,0,1,.5.22.68.68,0,0,1,1,0,.68.68,0,0,1,1,0,.65.65,0,0,1,.5-.22.68.68,0,1,1,0,1.36.65.65,0,0,1-.5-.22.68.68,0,0,1-1,0,.68.68,0,0,1-1,0l0,0a.68.68,0,0,1,0,1,.68.68,0,0,1,0,1l0,0a.68.68,0,0,1,1,0,.68.68,0,0,1,1,0,.65.65,0,0,1,.5-.22.68.68,0,1,1,0,1.36.65.65,0,0,1-.5-.22.68.68,0,0,1-1,0,.68.68,0,0,1-1,0Z"/><path class="cls-1" d="M80.76,10.27a.67.67,0,0,1-.68-.68.65.65,0,0,1,.22-.5.68.68,0,0,1,0-1,.68.68,0,0,1,0-1,.68.68,0,0,1,0-1,.65.65,0,0,1-.22-.5.68.68,0,0,1,1.36,0,.65.65,0,0,1-.22.5.68.68,0,0,1,0,1,.68.68,0,0,1,0,1,.68.68,0,0,1,0,1,.65.65,0,0,1,.22.5A.67.67,0,0,1,80.76,10.27Zm.32-5.68a.67.67,0,0,1,.68-.68.65.65,0,0,1,.5.22.68.68,0,0,1,1,0,.65.65,0,0,1,.5-.22.68.68,0,1,1,0,1.36.65.65,0,0,1-.5-.22.68.68,0,0,1-1,0,.65.65,0,0,1-.5.22A.67.67,0,0,1,81.08,4.59Zm3.36,6a.67.67,0,0,1-.68.68.65.65,0,0,1-.5-.22.68.68,0,0,1-1,0,.65.65,0,0,1-.5.22.68.68,0,1,1,0-1.36.65.65,0,0,1,.5.22.68.68,0,0,1,1,0,.65.65,0,0,1,.5-.22A.67.67,0,0,1,84.44,10.59Zm.32-5.68a.68.68,0,1,1-.68.68A.67.67,0,0,1,84.76,4.91Zm.68,4.68a.68.68,0,1,1-.68-.68A.67.67,0,0,1,85.44,9.59Z"/><path class="cls-1" d="M92.44,4.59a.67.67,0,0,1-.68.68.65.65,0,0,1-.5-.22.68.68,0,0,1-1,0l0,0a.68.68,0,0,1,0,1,.68.68,0,0,1,0,1,.68.68,0,0,1,0,1,.68.68,0,0,1,0,1,.68.68,0,0,1,0,1,.65.65,0,0,1,.22.5.68.68,0,0,1-1.36,0,.65.65,0,0,1,.22-.5.68.68,0,0,1,0-1,.68.68,0,0,1,0-1,.68.68,0,0,1,0-1,.68.68,0,0,1,0-1,.68.68,0,0,1,0-1,.08.08,0,0,1,0,0,.68.68,0,0,1-1,0,.65.65,0,0,1-.5.22.68.68,0,1,1,0-1.36.65.65,0,0,1,.5.22.68.68,0,0,1,1,0,.68.68,0,0,1,1,0,.68.68,0,0,1,1,0,.65.65,0,0,1,.5-.22A.67.67,0,0,1,92.44,4.59Z"/><path class="cls-1" d="M95.72,8.09a.68.68,0,0,1,0,1,.68.68,0,0,1,0,1l0,0a.68.68,0,0,1,1,0,.68.68,0,0,1,1,0,.65.65,0,0,1,.5-.22.68.68,0,1,1,0,1.36.68.68,0,0,0-1,0,.65.65,0,0,1-.5-.22.68.68,0,0,1-1,0,.65.65,0,0,1-.5.22.67.67,0,0,1-.68-.68.65.65,0,0,1,.22-.5.68.68,0,0,1,0-1,.68.68,0,0,1,0-1,.68.68,0,0,1,0-1,.68.68,0,0,1,0-1,.68.68,0,0,1,0-1,.65.65,0,0,1-.22-.5.67.67,0,0,1,.68-.68.65.65,0,0,1,.5.22.68.68,0,0,1,1,0,.68.68,0,0,1,1,0,.65.65,0,0,1,.5-.22.68.68,0,1,1,0,1.36.68.68,0,0,0-1,0,.65.65,0,0,1-.5-.22.68.68,0,0,1-1,0l0,0a.68.68,0,0,1,0,1,.68.68,0,0,1,0,1l0,0a.68.68,0,0,1,1,0,.68.68,0,0,1,1,0,.65.65,0,0,1,.5-.22.68.68,0,1,1,0,1.36.68.68,0,0,0-1,0,.65.65,0,0,1-.5-.22.68.68,0,0,1-1,0Z"/><path class="cls-1" d="M101.8,6.09a.65.65,0,0,1-.22-.5.68.68,0,0,1,1.36,0,.65.65,0,0,1-.22.5.65.65,0,0,1,.22.5.68.68,0,0,1-1.36,0A.65.65,0,0,1,101.8,6.09Zm.46,4.18a.68.68,0,1,1,.68-.68A.67.67,0,0,1,102.26,10.27Zm.32-5.68a.67.67,0,0,1,.68-.68.68.68,0,0,0,1,0,.68.68,0,0,0,1,0,.68.68,0,1,1,0,1.36.68.68,0,0,0-1,0,.68.68,0,0,0-1,0A.67.67,0,0,1,102.58,4.59Zm3.36,3a.67.67,0,0,1-.68.68.68.68,0,0,0-1,0,.68.68,0,0,0-1,0,.68.68,0,1,1,0-1.36.68.68,0,0,0,1,0,.68.68,0,0,0,1,0A.67.67,0,0,1,105.94,7.59Zm0,3a.67.67,0,0,1-.68.68.68.68,0,0,0-1,0,.68.68,0,0,0-1,0,.68.68,0,1,1,0-1.36.68.68,0,0,0,1,0,.68.68,0,0,0,1,0A.67.67,0,0,1,105.94,10.59Zm.32-5.68a.68.68,0,1,1-.68.68A.67.67,0,0,1,106.26,4.91Zm.46,4.18a.65.65,0,0,1,.22.5.68.68,0,0,1-1.36,0,.65.65,0,0,1,.22-.5.65.65,0,0,1-.22-.5.68.68,0,0,1,1.36,0A.65.65,0,0,1,106.72,9.09Z"/><circle class="cls-1" cx="0.6" cy="6.65" r="0.6"/><circle class="cls-1" cx="0.6" cy="7.66" r="0.6"/><circle class="cls-1" cx="0.6" cy="8.66" r="0.6"/><circle class="cls-1" cx="6.61" cy="7.66" r="0.6"/><circle class="cls-1" cx="6.61" cy="8.66" r="0.6"/><circle class="cls-1" cx="8.61" cy="7.66" r="0.6"/><circle class="cls-1" cx="15.63" cy="7.66" r="0.6"/><circle class="cls-1" cx="8.61" cy="8.66" r="0.6"/><circle class="cls-1" cx="14.62" cy="8.66" r="0.6"/><circle class="cls-1" cx="2.59" cy="11.69" r="0.6"/><circle class="cls-1" cx="1.59" cy="10.69" r="0.6"/><circle class="cls-1" cx="1.59" cy="9.68" r="0.6"/><circle class="cls-1" cx="7.61" cy="10.69" r="0.6"/><circle class="cls-1" cx="12.62" cy="10.69" r="0.6"/><circle class="cls-1" cx="7.61" cy="9.68" r="0.6"/><circle class="cls-1" cx="13.62" cy="9.68" r="0.6"/><circle class="cls-1" cx="3.6" cy="12.7" r="0.6"/><circle class="cls-1" cx="4.6" cy="12.7" r="0.6"/><circle class="cls-1" cx="5.6" cy="12.7" r="0.6"/><circle class="cls-1" cx="3.6" cy="2.61" r="0.6"/><circle class="cls-1" cx="2.59" cy="3.62" r="0.6"/><circle class="cls-1" cx="1.6" cy="4.63" r="0.6"/><circle class="cls-1" cx="1.6" cy="5.64" r="0.6"/><circle class="cls-1" cx="5.6" cy="4.63" r="0.6"/><circle class="cls-1" cx="5.6" cy="5.64" r="0.6"/><circle class="cls-1" cx="5.6" cy="6.65" r="0.6"/><circle class="cls-1" cx="9.61" cy="4.63" r="0.6"/><circle class="cls-1" cx="9.61" cy="5.64" r="0.6"/><circle class="cls-1" cx="12.62" cy="5.64" r="0.6"/><circle class="cls-1" cx="4.6" cy="2.61" r="0.6"/><circle class="cls-1" cx="5.6" cy="2.61" r="0.6"/><circle class="cls-1" cx="13.62" cy="4.63" r="0.6"/><circle class="cls-1" cx="14.62" cy="4.63" r="0.6"/><circle class="cls-1" cx="15.63" cy="4.63" r="0.6"/><circle class="cls-1" cx="20.64" cy="4.63" r="0.6"/><circle class="cls-1" cx="21.64" cy="4.63" r="0.6"/><circle class="cls-1" cx="22.64" cy="4.63" r="0.6"/><circle class="cls-1" cx="20.64" cy="7.66" r="0.6"/><circle class="cls-1" cx="21.64" cy="7.66" r="0.6"/><circle class="cls-1" cx="22.64" cy="7.66" r="0.6"/><circle class="cls-1" cx="20.64" cy="10.69" r="0.6"/><circle class="cls-1" cx="21.64" cy="10.69" r="0.6"/><circle class="cls-1" cx="22.64" cy="10.69" r="0.6"/><circle class="cls-1" cx="13.62" cy="0.6" r="0.6"/><circle class="cls-1" cx="12.62" cy="0.6" r="0.6"/><circle class="cls-1" cx="11.62" cy="0.6" r="0.6"/><circle class="cls-1" cx="10.62" cy="0.6" r="0.6"/><circle class="cls-1" cx="9.61" cy="1.6" r="0.6"/><circle class="cls-1" cx="8.61" cy="1.6" r="0.6"/><circle class="cls-1" cx="9.61" cy="13.71" r="0.6"/><circle class="cls-1" cx="8.61" cy="13.71" r="0.6"/><circle class="cls-1" cx="7.61" cy="1.6" r="0.6"/><circle class="cls-1" cx="6.61" cy="1.6" r="0.6"/><circle class="cls-1" cx="7.61" cy="13.71" r="0.6"/><circle class="cls-1" cx="6.61" cy="13.71" r="0.6"/><circle class="cls-1" cx="16.63" cy="10.69" r="0.6"/><circle class="cls-1" cx="15.63" cy="10.69" r="0.6"/><circle class="cls-1" cx="14.62" cy="10.69" r="0.6"/><circle class="cls-1" cx="13.62" cy="10.69" r="0.6"/><circle class="cls-1" cx="10.62" cy="14.71" r="0.6"/><circle class="cls-1" cx="11.62" cy="14.71" r="0.6"/><circle class="cls-1" cx="14.62" cy="0.6" r="0.6"/><circle class="cls-1" cx="15.63" cy="0.6" r="0.6"/><circle class="cls-1" cx="16.63" cy="0.6" r="0.6"/><circle class="cls-1" cx="17.63" cy="0.6" r="0.6"/><circle class="cls-1" cx="18.63" cy="0.6" r="0.6"/><circle class="cls-1" cx="19.63" cy="1.6" r="0.6"/><circle class="cls-1" cx="20.64" cy="1.6" r="0.6"/><circle class="cls-1" cx="17.63" cy="14.71" r="0.6"/><circle class="cls-1" cx="18.63" cy="14.71" r="0.6"/><circle class="cls-1" cx="19.63" cy="13.71" r="0.6"/><circle class="cls-1" cx="20.64" cy="13.71" r="0.6"/><circle class="cls-1" cx="21.64" cy="1.6" r="0.6"/><circle class="cls-1" cx="21.64" cy="13.71" r="0.6"/><circle class="cls-1" cx="22.64" cy="1.6" r="0.6"/><circle class="cls-1" cx="22.64" cy="13.71" r="0.6"/><circle class="cls-1" cx="13.62" cy="14.72" r="0.6"/><circle class="cls-1" cx="12.62" cy="14.72" r="0.6"/><circle class="cls-1" cx="14.62" cy="14.72" r="0.6"/><circle class="cls-1" cx="15.63" cy="14.72" r="0.6"/><circle class="cls-1" cx="16.63" cy="14.72" r="0.6"/><circle class="cls-1" cx="28.65" cy="8.66" r="0.6"/><circle class="cls-1" cx="28.65" cy="7.66" r="0.6"/><circle class="cls-1" cx="28.65" cy="6.65" r="0.6"/><circle class="cls-1" cx="26.65" cy="3.62" r="0.6"/><circle class="cls-1" cx="27.65" cy="4.63" r="0.6"/><circle class="cls-1" cx="27.65" cy="5.64" r="0.6"/><circle class="cls-1" cx="25.65" cy="2.61" r="0.6"/><circle class="cls-1" cx="24.65" cy="2.61" r="0.6"/><circle class="cls-1" cx="23.65" cy="2.61" r="0.6"/><circle class="cls-1" cx="25.65" cy="12.7" r="0.6"/><circle class="cls-1" cx="26.65" cy="11.7" r="0.6"/><circle class="cls-1" cx="27.65" cy="10.69" r="0.6"/><circle class="cls-1" cx="27.65" cy="9.68" r="0.6"/><circle class="cls-1" cx="24.65" cy="12.7" r="0.6"/><circle class="cls-1" cx="23.65" cy="12.7" r="0.6"/><circle class="cls-1" cx="9.61" cy="6.65" r="0.6"/><circle class="cls-1" cx="16.63" cy="5.64" r="0.6"/><circle class="cls-1" cx="16.63" cy="6.65" r="0.6"/><circle class="cls-1" cx="19.63" cy="5.64" r="0.6"/><circle class="cls-1" cx="19.63" cy="6.65" r="0.6"/><circle class="cls-1" cx="23.65" cy="5.64" r="0.6"/><circle class="cls-1" cx="19.63" cy="9.68" r="0.6"/><circle class="cls-1" cx="23.65" cy="8.66" r="0.6"/><circle class="cls-1" cx="23.65" cy="9.68" r="0.6"/></svg>